<svg xmlns="http://www.w3.org/2000/svg" width="186.095" height="120.047" viewBox="0 0 186.095 120.047"><path fill-rule="evenodd" clip-rule="evenodd" fill="#17BCE2" d="M79.64 86.04c-4.103 8.68-19.333 21.48-32.84 21.48-9.408 0-16.162-3.857-20.75-8.924-2.776-3.098-5.22-7.766-6.51-15.618.007 10.998.055 22.857.405 32.646 5.87 2.898 12.947 4.424 21.066 4.424 15.088 0 29.885-8.592 38.117-23.33l.512-10.677z"/><path fill-rule="evenodd" clip-rule="evenodd" fill="#8DD0BC" d="M96.96 32.088c.256-9.723.635-19.484 1.227-29.635-3.14.717-6.275 1.2-9.895 1.2-3.614 0-6.753-.483-10.126-1.2.02.656.05 1.338.075 2.02C88.61 9.594 95.186 19.04 96.96 32.09"/><path fill-rule="evenodd" clip-rule="evenodd" fill="#17BCE2" d="M18.824 33.463c4.103-8.675 19.054-20.886 32.56-20.886 9.405 0 16.164 3.858 20.746 8.918 2.78 3.11 5.224 7.77 6.512 15.632-.007-11-.05-22.862-.4-32.653C72.368 1.57 65.29.047 57.17.047 42.088.047 27.175 8.99 18.945 23.73l-.12 9.733z"/><path fill-rule="evenodd" clip-rule="evenodd" fill="#FFE830" d="M1.223 88.01C.968 97.735.59 107.49 0 117.65c3.137-.72 6.272-1.205 9.893-1.205 3.613 0 6.754.484 10.132 1.205-.026-.666-.054-1.336-.078-2.027C9.575 110.5 3.003 101.057 1.223 88.01"/><path fill-rule="evenodd" clip-rule="evenodd" fill="#8DD0BC" d="M18.574 69.445c0-15.77.486-46.263.486-46.263 0-6.662.004-13.556.466-20.448-2.89.555-5.745.916-8.428.916-.112 0-.234-.01-.35-.01-.203.006-.413.02-.617.02-3.053 0-6.11-.458-9.165-1.15.057 2.978.104 5.954.16 8.916.408 10.76.567 21.854.567 32.968 0 15.18-.098 29.36-.468 43.614 1.778 13.05 8.348 22.49 18.724 27.62-.354-9.794-.402-21.652-.407-32.65-.61-3.734-.966-8.18-.966-13.533"/><path fill-rule="evenodd" clip-rule="evenodd" fill="#FFE830" d="M96.96 32.088C95.186 19.04 88.61 9.594 78.24 4.475c.353 9.793.394 21.65.402 32.654.61 3.73.97 8.172.97 13.52 0 15.773-.486 46.266-.486 46.266 0 6.663-.004 13.554-.468 20.456 2.885-.558 5.743-.927 8.43-.927.11 0 .23.01.346.014.208-.005.413-.022.618-.022 3.056 0 6.113.466 9.168 1.152-.053-2.982-.104-5.96-.158-8.924-.41-10.762-.562-21.852-.562-32.957 0-15.19.09-29.362.46-43.622"/><path fill="#120C15" d="M62.65 44.574c0 .15-.152.225-.454.225H56.644c-.262 0-.393-.07-.393-.212 0-.1.057-.16.167-.18.11-.02.5-.04 1.16-.06.384-.02.605-.075.666-.166.06-.09.09-.416.09-.978V37.43c0-2.186-.08-3.49-.24-3.91-.344-.902-1.026-1.354-2.053-1.354-1.006 0-1.852.44-2.535 1.323-.202.26-.302.62-.302 1.083v9.384c0 .24.214.372.645.39l.92.03c.204 0 .307.072.307.21 0 .142-.12.212-.362.212H49.22c-.303 0-.454-.062-.454-.187 0-.12.18-.2.543-.237h.754c.302 0 .482-.07.543-.21l.09-.45V37.16c0-2.285-.02-3.548-.06-3.788-.04-.24-.292-.362-.755-.362h-.874c-.404 0-.605-.074-.605-.224 0-.192.21-.287.634-.287.604-.022 1.257-.133 1.962-.334.703-.2 1.196-.432 1.478-.692.182-.16.322-.24.423-.24.142 0 .212.19.212.57v1.448c1.045-1.346 2.394-2.02 4.043-2.02 1.45 0 2.495.53 3.14 1.598.36.604.542 1.75.542 3.437v6.874c0 .645.03.996.09 1.058.12.12.412.18.875.18h.542c.204-.002.305.065.305.196M70.828 44.558c0 .182-.172.272-.513.272.02 0-.222-.02-.725-.062-.604-.04-1.107-.06-1.51-.06h-3.138c-.1.08-.222.12-.363.12-.222 0-.333-.073-.333-.224 0-.212.2-.318.604-.318.766-.02 1.183-.075 1.253-.166s.105-.507.105-1.25v-9.137c-.02-.503-.045-.8-.075-.89-.03-.09-.157-.135-.378-.135H64.58c-.22 0-.332-.07-.332-.21 0-.125.168-.194.506-.213 1.33-.058 2.472-.37 3.425-.94l.297-.175c.158.302.238.853.238 1.654v9.685c0 .804.015 1.273.045 1.413.03.14.136.23.316.272.302.08.744.12 1.328.12.283.002.424.08.424.243m-2.264-18.783c0 .904-.453 1.356-1.358 1.356-.382 0-.705-.125-.965-.377-.26-.25-.392-.557-.392-.92 0-.943.453-1.415 1.358-1.415s1.358.452 1.358 1.357M84.378 31.775c0 .14-.192.21-.573.21H83.08c-.362 0-.645.222-.845.665-.12.382-.24.766-.362 1.148l-2.535 7.797c-.142.402-.343 1.017-.604 1.843-.322 1.107-.584 1.66-.785 1.66-.142 0-.283-.19-.424-.57-.1-.24-.2-.513-.302-.814-1.63-4.4-2.455-6.592-2.475-6.573-1.047-3.01-1.682-4.645-1.902-4.91-.18-.182-.463-.264-.845-.243h-.694c-.202 0-.303-.066-.303-.196s.14-.195.423-.195H77.192c.202 0 .303.07.303.21 0 .163-.312.244-.935.244-.624 0-.936.08-.936.24 0 .222.085.556.254 1 .325.803.953 2.53 1.886 5.18.4 1.188.73 2.093.99 2.717.565-1.796 1.07-3.34 1.513-4.632.89-2.622 1.333-4.055 1.333-4.295 0-.182-.15-.272-.453-.272h-.664c-.262 0-.393-.07-.393-.21 0-.12.12-.183.363-.183h3.018c.607-.022.908.04.908.18M96.39 41.452c0 .202-.155.558-.467 1.07-.313.513-.63.93-.95 1.25-.867.886-2.024 1.328-3.473 1.328-1.81 0-3.325-.652-4.54-1.96-1.22-1.306-1.828-2.924-1.828-4.853 0-2.01.58-3.688 1.736-5.035 1.156-1.348 2.6-2.02 4.33-2.02 1.428 0 2.626.417 3.592 1.25.965.834 1.48 1.906 1.54 3.21-.645.103-1.5.142-2.565.123H91.65c-.14 0-1.347.03-3.62.088-.1.662-.15 1.294-.15 1.894 0 2.023.386 3.58 1.16 4.672s1.867 1.637 3.276 1.637c.804 0 1.45-.182 1.93-.544.484-.36 1.007-1.056 1.57-2.08.08-.16.19-.24.332-.24.162-.002.242.07.242.21m-2.625-6.15c-.08-2.412-.946-3.618-2.596-3.618-1.63 0-2.648 1.206-3.05 3.618h5.645zM108.1 33.343c0 .463-.14.844-.422 1.146-.283.3-.645.45-1.087.45-.362 0-.663-.105-.904-.316s-.363-.478-.363-.8c0-.28.09-.52.272-.722.182-.2.27-.342.27-.422 0-.303-.22-.453-.663-.453-.564 0-1.046.35-1.45 1.05-.462.82-.693 2.34-.693 4.56v5.94c0 .24.085.392.255.45.17.062.69.1 1.554.12.22.04.332.12.332.24 0 .142-.132.212-.393.212h-5.856c-.322 0-.482-.06-.482-.18 0-.122.13-.183.39-.183h.424c.683 0 1.085-.08 1.207-.243.04-.08.06-.454.06-1.12V34.74c0-1.11-.166-1.752-.498-1.925-.333-.17-.86-.267-1.583-.287-.242 0-.363-.07-.363-.21s.1-.212.3-.212h.212c.302 0 .605.015.905.044.303.03.434.047.393.047.744 0 1.57-.21 2.476-.633l.393-.182.24-.09c.08.482.12.965.12 1.446v.604c.644-1.368 1.55-2.05 2.717-2.05.645 0 1.178.195 1.6.588.422.39.633.88.633 1.463M119.026 40.9c0 1.168-.426 2.16-1.274 2.977-.85.815-1.863 1.225-3.042 1.225-.68 0-1.51-.242-2.487-.725-.26-.14-.49-.21-.69-.21-.28 0-.49.19-.628.572-.08.24-.19.36-.33.36s-.21-.08-.21-.24v-4.04c0-.223.07-.332.212-.332.16 0 .25.11.27.334.12.932.383 1.66.786 2.186.804 1.055 1.88 1.58 3.23 1.58.724 0 1.307-.212 1.75-.634.44-.423.664-.987.664-1.693 0-.784-.252-1.408-.754-1.87-.283-.263-.54-.45-.77-.56s-.912-.38-2.04-.803c-2.23-.845-3.35-2.115-3.35-3.807 0-1.128.38-2.074 1.14-2.84.756-.767 1.695-1.148 2.814-1.148.398 0 .998.12 1.794.36.202.062.38.092.542.092.42 0 .678-.202.778-.604.06-.2.15-.302.27-.302.14 0 .21.08.21.242v1.446c-.022.483.03 1.257.15 2.323v.06c0 .16-.08.24-.242.24-.12 0-.27-.304-.453-.913-.22-.73-.608-1.318-1.162-1.764-.554-.447-1.192-.67-1.916-.67-.686 0-1.248.21-1.69.635s-.665.958-.665 1.603c0 1.008.675 1.773 2.023 2.297 2.092.827 3.42 1.512 3.984 2.055.723.706 1.086 1.562 1.086 2.57M127.868 44.558c0 .182-.17.272-.513.272.02 0-.22-.02-.724-.062-.604-.04-1.106-.06-1.51-.06h-3.138c-.1.08-.22.12-.362.12-.22 0-.33-.073-.33-.224 0-.212.2-.318.603-.318.763-.02 1.182-.075 1.252-.166s.105-.507.105-1.25v-9.137c-.02-.503-.045-.8-.075-.89-.03-.09-.157-.135-.378-.135h-1.176c-.222 0-.332-.07-.332-.21 0-.125.168-.194.505-.213 1.33-.058 2.47-.37 3.425-.94l.297-.175c.16.302.24.853.24 1.654v9.685c0 .804.014 1.273.044 1.413.03.14.135.23.315.272.302.08.744.12 1.33.12.283.002.423.08.423.243m-2.263-18.783c0 .904-.453 1.356-1.358 1.356-.382 0-.705-.125-.965-.377-.262-.25-.394-.557-.394-.92 0-.943.454-1.415 1.36-1.415s1.357.452 1.357 1.357M138.038 42.96c0 .18-.252.502-.755.965-.865.784-1.89 1.177-3.077 1.177-1.107 0-1.942-.28-2.505-.843-.32-.322-.482-1.264-.482-2.828v-8.965c-.02-.2-.132-.31-.333-.33h-1.146c-.443 0-.665-.07-.665-.212s.11-.22.33-.24c1.558-.144 2.778-.915 3.66-2.32.117-.182.27-.272.448-.272.14 0 .21.07.21.21v.634c0 .844.04 1.387.12 1.627.182.04.483.06.905.06 1.107 0 1.84-.05 2.204-.148.08-.02.15-.03.21-.03.162 0 .243.086.243.26 0 .29-.816.433-2.445.433h-1.237v5.577c0 2.813.07 4.58.21 5.29.142.716.605 1.072 1.39 1.072.665 0 1.407-.372 2.233-1.116.08-.102.17-.152.27-.152.142-.003.212.047.212.15M150.413 41.452c0 .202-.157.558-.47 1.07-.31.513-.628.93-.95 1.25-.865.886-2.02 1.33-3.47 1.33-1.81 0-3.325-.655-4.543-1.962-1.217-1.307-1.825-2.925-1.825-4.854 0-2.01.577-3.688 1.734-5.035 1.156-1.345 2.6-2.02 4.33-2.02 1.43 0 2.626.418 3.593 1.25.965.835 1.478 1.905 1.538 3.212-.643.102-1.498.14-2.564.122h-2.112c-.142 0-1.348.03-3.62.09-.102.66-.15 1.292-.15 1.892 0 2.023.386 3.58 1.16 4.672.773 1.092 1.866 1.638 3.274 1.638.804 0 1.448-.182 1.932-.544.482-.36 1.007-1.056 1.57-2.08.08-.16.19-.24.33-.24.162 0 .243.07.243.21m-2.627-6.15c-.08-2.41-.946-3.617-2.596-3.617-1.63 0-2.646 1.206-3.048 3.618h5.644zm1.39-10.583l-2.747 2.882c-1.208 1.275-1.913 1.912-2.113 1.912-.122 0-.182-.05-.182-.15 0-.04.02-.102.06-.18.222-.545.554-1.328.996-2.354l.968-2.11H149.175zM30.537 34.96c.04-.98.06-1.948.06-2.912 0-.91-.007-1.9-.02-2.968-.014-1.066-.034-2.147-.06-3.242.65.13 1.2.195 1.642.195.416 0 .95-.064 1.602-.195-.13 1.563-.23 3.274-.293 5.137-.066 1.86-.1 3.77-.1 5.723 0 1.354.12 2.388.353 3.104.234.717.52 1.258.86 1.622.365.416.827.762 1.388 1.034.562.273 1.22.41 1.976.41 1.095 0 2.007-.24 2.737-.723.73-.48 1.264-1.073 1.603-1.776.182-.443.326-.82.43-1.135.104-.312.19-.73.254-1.248.065-.52.104-1.225.117-2.11s.02-2.095.02-3.632v-3.28c0-.573-.007-1.12-.02-1.642-.013-.52-.033-1.016-.06-1.484.288.052.56.098.822.136.26.04.533.06.82.06.286 0 .56-.02.82-.06.262-.038.522-.084.783-.137-.13 2.03-.21 3.99-.235 5.878S46 35.602 46 37.71c0 1.173.014 2.32.04 3.44.024 1.12.064 2.2.117 3.24-.522-.052-1.03-.078-1.525-.078s-1.003.026-1.524.08c.025-.235.045-.48.06-.743.012-.26.02-.533.02-.82v-1.68h-.08c-.678 1.25-1.55 2.166-2.62 2.753-1.067.585-2.227.88-3.478.88-2.033 0-3.63-.54-4.79-1.622-1.16-1.08-1.74-2.636-1.74-4.666 0-1.38.02-2.558.057-3.535"/><path fill="none" stroke="#120C15" stroke-width=".685" d="M30.537 34.96c.04-.98.06-1.948.06-2.912 0-.91-.007-1.9-.02-2.968-.014-1.066-.034-2.147-.06-3.242.65.13 1.2.195 1.642.195.416 0 .95-.064 1.602-.195-.13 1.563-.23 3.274-.293 5.137-.066 1.86-.1 3.77-.1 5.723 0 1.354.12 2.388.353 3.104.234.717.52 1.258.86 1.622.365.416.827.762 1.388 1.034.562.273 1.22.41 1.976.41 1.095 0 2.007-.24 2.737-.723.73-.48 1.264-1.073 1.603-1.776.182-.443.326-.82.43-1.135.104-.312.19-.73.254-1.248.065-.52.104-1.225.117-2.11s.02-2.095.02-3.632v-3.28c0-.573-.007-1.12-.02-1.642-.013-.52-.033-1.016-.06-1.484.288.052.56.098.822.136.26.04.533.06.82.06.286 0 .56-.02.82-.06.262-.038.522-.084.783-.137-.13 2.03-.21 3.99-.235 5.878S46 35.602 46 37.71c0 1.173.014 2.32.04 3.44.024 1.12.064 2.2.117 3.24-.522-.052-1.03-.078-1.525-.078s-1.003.026-1.524.08c.025-.235.045-.48.06-.743.012-.26.02-.533.02-.82v-1.68h-.08c-.678 1.25-1.55 2.166-2.62 2.753-1.067.585-2.227.88-3.478.88-2.033 0-3.63-.54-4.79-1.622-1.16-1.08-1.74-2.636-1.74-4.666 0-1.38.02-2.558.057-3.535z"/><path fill="#120C15" d="M54.217 68.17c0 .147-.14.22-.42.22.016 0-.182-.015-.593-.048-.494-.033-.906-.05-1.235-.05H49.4c-.082.066-.18.1-.295.1-.18 0-.27-.062-.27-.185 0-.174.163-.26.493-.26.625-.017.967-.062 1.024-.135.058-.075.086-.416.086-1.024v-7.476c-.017-.41-.037-.652-.062-.727s-.128-.11-.31-.11h-.961c-.18 0-.27-.06-.27-.173 0-.102.137-.158.413-.174 1.088-.048 2.022-.305 2.802-.77l.243-.143c.13.246.196.697.196 1.354v7.925c0 .655.01 1.04.035 1.154.025.115.11.188.26.222.247.066.608.1 1.086.1.23 0 .347.065.347.198m-1.853-15.368c0 .74-.37 1.11-1.112 1.11-.312 0-.576-.103-.79-.31-.215-.206-.32-.455-.32-.753 0-.772.37-1.16 1.11-1.16.742 0 1.112.37 1.112 1.112M64.314 59.807c0 .758-.37 1.135-1.11 1.135-.725 0-1.088-.346-1.088-1.035 0-.182.083-.453.247-.814.05-.115.075-.23.075-.346 0-.328-.17-.6-.506-.814-.337-.214-.762-.32-1.27-.32-.99 0-1.754.43-2.298 1.283-.543.855-.815 2.057-.815 3.602 0 1.743.28 3.086.84 4.033.56.945 1.35 1.42 2.37 1.42.69 0 1.308-.216 1.852-.644.247-.195.568-.574.963-1.135.082-.08.156-.12.222-.12.165 0 .247.065.247.195 0 .215-.288.617-.864 1.21-.74.772-1.688 1.16-2.84 1.16-1.45 0-2.646-.52-3.592-1.556-.947-1.036-1.42-2.345-1.42-3.922 0-1.694.502-3.097 1.506-4.207 1.002-1.11 2.262-1.663 3.777-1.663.973 0 1.832.255 2.582.765s1.122 1.1 1.122 1.775M74.76 65.628c0 .164-.128.457-.383.876-.256.42-.515.76-.778 1.023-.71.725-1.655 1.086-2.84 1.086-1.482 0-2.72-.535-3.717-1.604s-1.494-2.394-1.494-3.973c0-1.644.472-3.018 1.418-4.12s2.128-1.65 3.543-1.65c1.17 0 2.15.34 2.94 1.02.79.684 1.21 1.56 1.26 2.63-.528.08-1.228.115-2.1.098h-1.73c-.115 0-1.102.024-2.962.074-.082.54-.123 1.056-.123 1.548 0 1.653.316 2.928.95 3.82.635.893 1.527 1.34 2.68 1.34.658 0 1.185-.148 1.58-.443.395-.297.823-.863 1.285-1.703.065-.13.156-.197.27-.197.133 0 .2.06.2.173m-2.15-5.032c-.065-1.973-.773-2.96-2.122-2.96-1.334 0-2.166.987-2.494 2.96h4.617zM42.09 52.953c-.755-1.002-1.798-1.505-3.127-1.505-1.825 0-3.16.562-4.008 1.68-.847 1.12-1.27 2.696-1.27 4.726v3.32c0 1.172.02 2.402.06 3.69.038 1.29.122 2.456.252 3.495-.6-.052-1.186-.078-1.76-.078-.573 0-1.16.026-1.76.077.132-1.04.216-2.206.255-3.495s.06-2.52.06-3.69v-4.063c0-1.17-.02-2.4-.06-3.69s-.124-2.493-.254-3.613c.73.13 1.316.195 1.76.195.208 0 .436-.02.684-.06s.542-.084.88-.137c-.078 1.043-.117 2.085-.117 3.126h.078c.732-1.12 1.608-1.986 2.628-2.6 1.02-.61 2.236-.916 3.648-.916.732 0 1.47.104 2.216.313.745.21 1.42.566 2.02 1.073.6.51 1.092 1.198 1.47 2.07.38.874.57 1.987.57 3.34 0 1.12-.027 2.27-.08 3.456-.052 1.185-.077 2.44-.077 3.767v2.54c0 .418.006.827.02 1.23.013.405.03.788.058 1.15-.527-.05-1.08-.076-1.66-.076-.556 0-1.097.027-1.623.078.05-1.354.11-2.746.176-4.178.064-1.432.098-2.902.098-4.413v-2.384c0-1.95-.38-3.427-1.135-4.43"/><path fill="none" stroke="#120C15" stroke-width=".685" d="M42.09 52.953c-.755-1.002-1.798-1.505-3.127-1.505-1.825 0-3.16.562-4.008 1.68-.847 1.12-1.27 2.696-1.27 4.726v3.32c0 1.172.02 2.402.06 3.69.038 1.29.122 2.456.252 3.495-.6-.052-1.186-.078-1.76-.078-.573 0-1.16.026-1.76.077.132-1.04.216-2.206.255-3.495s.06-2.52.06-3.69v-4.063c0-1.17-.02-2.4-.06-3.69s-.124-2.493-.254-3.613c.73.13 1.316.195 1.76.195.208 0 .436-.02.684-.06s.542-.084.88-.137c-.078 1.043-.117 2.085-.117 3.126h.078c.732-1.12 1.608-1.986 2.628-2.6 1.02-.61 2.236-.916 3.648-.916.732 0 1.47.104 2.216.313.745.21 1.42.566 2.02 1.073.6.51 1.092 1.198 1.47 2.07.38.874.57 1.987.57 3.34 0 1.12-.027 2.27-.08 3.456-.052 1.185-.077 2.44-.077 3.767v2.54c0 .418.006.827.02 1.23.013.405.03.788.058 1.15-.527-.05-1.08-.076-1.66-.076-.556 0-1.097.027-1.623.078.05-1.354.11-2.746.176-4.178.064-1.432.098-2.902.098-4.413v-2.384c0-1.95-.38-3.427-1.135-4.43z"/><path fill="#120C15" d="M32.786 89.96c.348.333.762.647 1.243.94.48.293 1.026.538 1.64.734.612.195 1.267.293 1.963.293.63 0 1.234-.084 1.814-.252.58-.167 1.094-.404 1.54-.712.45-.308.804-.698 1.07-1.173.265-.475.398-1.02.398-1.634 0-.866-.29-1.53-.87-1.99-.58-.46-1.3-.84-2.163-1.132-.862-.293-1.807-.55-2.833-.774-1.03-.223-1.973-.538-2.834-.943-.862-.404-1.583-.942-2.162-1.612-.58-.67-.87-1.592-.87-2.765 0-.923.182-1.767.547-2.534.365-.77.896-1.432 1.59-1.99.697-.56 1.56-.998 2.587-1.32 1.026-.32 2.203-.482 3.528-.482 1.226 0 2.262.14 3.106.42.846.28 1.65.53 2.412.754-.266.42-.514.936-.746 1.55-.232.615-.38 1.09-.448 1.425H42.7c-.264-.67-.777-1.27-1.54-1.8-.763-.532-1.707-.798-2.833-.798-.497 0-.994.07-1.49.21-.498.14-.945.35-1.343.628s-.73.643-.994 1.09c-.266.446-.397.977-.397 1.592 0 .894.29 1.585.87 2.072.58.49 1.3.875 2.162 1.153.86.28 1.806.522 2.833.732 1.027.21 1.97.504 2.833.88.862.377 1.583.9 2.163 1.572.58.67.87 1.59.87 2.764 0 .81-.207 1.607-.622 2.39-.413.78-1.01 1.487-1.787 2.115-.78.628-1.716 1.118-2.81 1.466-1.092.35-2.334.522-3.727.522-1.524 0-2.8-.126-3.827-.377-1.028-.252-1.89-.545-2.585-.88.2-.362.405-.858.62-1.487.216-.628.324-1.152.324-1.57h.596c.166.278.422.585.77.92"/><path fill="none" stroke="#120C15" stroke-width=".685" d="M32.786 89.96c.348.333.762.647 1.243.94.48.293 1.026.538 1.64.734.612.195 1.267.293 1.963.293.63 0 1.234-.084 1.814-.252.58-.167 1.094-.404 1.54-.712.45-.308.804-.698 1.07-1.173.265-.475.398-1.02.398-1.634 0-.866-.29-1.53-.87-1.99-.58-.46-1.3-.84-2.163-1.132-.862-.293-1.807-.55-2.833-.774-1.03-.223-1.973-.538-2.834-.943-.862-.404-1.583-.942-2.162-1.612-.58-.67-.87-1.592-.87-2.765 0-.923.182-1.767.547-2.534.365-.77.896-1.432 1.59-1.99.697-.56 1.56-.998 2.587-1.32 1.026-.32 2.203-.482 3.528-.482 1.226 0 2.262.14 3.106.42.846.28 1.65.53 2.412.754-.266.42-.514.936-.746 1.55-.232.615-.38 1.09-.448 1.425H42.7c-.264-.67-.777-1.27-1.54-1.8-.763-.532-1.707-.798-2.833-.798-.497 0-.994.07-1.49.21-.498.14-.945.35-1.343.628s-.73.643-.994 1.09c-.266.446-.397.977-.397 1.592 0 .894.29 1.585.87 2.072.58.49 1.3.875 2.162 1.153.86.28 1.806.522 2.833.732 1.027.21 1.97.504 2.833.88.862.377 1.583.9 2.163 1.572.58.67.87 1.59.87 2.764 0 .81-.207 1.607-.622 2.39-.413.78-1.01 1.487-1.787 2.115-.78.628-1.716 1.118-2.81 1.466-1.092.35-2.334.522-3.727.522-1.524 0-2.8-.126-3.827-.377-1.028-.252-1.89-.545-2.585-.88.2-.362.405-.858.62-1.487.216-.628.324-1.152.324-1.57h.596c.166.278.422.585.77.92z"/><path fill="#120C15" d="M57.77 88.047c0 1.594-.484 2.932-1.455 4.008-.972 1.078-2.18 1.616-3.63 1.616-1.498 0-2.75-.537-3.753-1.615-1.005-1.076-1.506-2.414-1.506-4.008 0-1.645.49-3.01 1.47-4.096.978-1.084 2.2-1.626 3.666-1.626 1.482 0 2.72.547 3.717 1.64.994 1.094 1.49 2.454 1.49 4.083m-2.245-.025c0-1.81-.28-3.216-.84-4.22-.41-.738-1.102-1.107-2.073-1.107-.922 0-1.642.47-2.16 1.418-.52.944-.78 2.257-.78 3.934 0 1.662.276 2.957.828 3.885.552.93 1.32 1.394 2.31 1.394.757 0 1.316-.287 1.68-.862.69-1.087 1.035-2.567 1.035-4.442M69.23 87.9c0 1.643-.467 3.017-1.4 4.118-.934 1.102-2.094 1.652-3.48 1.652-1.09 0-1.934-.394-2.528-1.184v5.747c0 .36.013.575.037.64.024.067.104.124.237.175.25.05.732.074 1.45.074.2 0 .3.073.3.22 0 .117-.108.175-.322.175h-4.84c-.477 0-.714-.062-.714-.184 0-.158.1-.236.296-.236h.74c.48 0 .732-.106.766-.32.016-.1.025-.855.025-2.27V84.223c0-.46-.223-.674-.667-.64h-1.037c-.148 0-.222-.062-.222-.185 0-.157.182-.236.544-.236.904.018 1.728-.196 2.47-.642.213-.13.378-.196.493-.196.132 0 .218.062.26.185s.07.497.086 1.12c.61-.87 1.48-1.306 2.617-1.306 1.432 0 2.605.52 3.52 1.566.912 1.045 1.37 2.38 1.37 4.01m-2.198.01c0-1.285-.2-2.38-.595-3.287-.53-1.253-1.35-1.88-2.456-1.88-.578 0-1.075.202-1.49.606-.412.4-.635.893-.668 1.47-.033.725-.025 2.25.025 4.574.016 1.17.04 1.875.074 2.114.035.24.142.48.324.73.48.675 1.1 1.013 1.86 1.013.86 0 1.505-.362 1.936-1.087.66-1.104.992-2.522.992-4.252M81.082 93.227c0 .133-.14.198-.42.198h-4.495c-.214 0-.32-.065-.32-.198 0-.113.31-.17.937-.17.378 0 .597-.047.654-.137.056-.09.085-.397.085-.924v-4.994c0-1.493-.066-2.42-.197-2.78-.28-.755-.898-1.133-1.853-1.133-.79 0-1.433.352-1.926 1.057-.166.23-.248.738-.248 1.526v6.275c0 .442.008.697.024.762.017.164.083.26.198.284.116.025.47.045 1.062.062.198 0 .296.064.296.196 0 .114-.083.173-.247.173h-2.197c-1.368-.018-2.125-.018-2.272 0h-.246c-.182 0-.272-.05-.272-.15 0-.113.09-.17.272-.17h.37l.372-.025c.378.017.576-.1.592-.346V81.64c0-2.635-.04-4.06-.124-4.274-.098-.164-.5-.254-1.21-.27-.395 0-.592-.063-.592-.184 0-.105.04-.168.124-.186.082-.018.362-.033.84-.05.838-.017 1.645-.215 2.42-.595.064-.03.18-.07.345-.122.115.198.173.83.173 1.9v6.044c.725-1.054 1.712-1.58 2.963-1.58 1.316 0 2.256.362 2.815 1.087.28.36.452.87.52 1.528.032.23.048.78.048 1.652v6.217c.017.164.444.246 1.284.246.148.035.222.092.222.174M86.637 93.227c0 .148-.14.223-.42.223.017 0-.18-.018-.592-.05-.494-.033-.905-.05-1.235-.05h-2.568c-.082.066-.182.1-.296.1-.182 0-.272-.06-.272-.183 0-.175.165-.263.494-.263.627-.016.967-.06 1.025-.135.057-.075.086-.417.086-1.024v-7.474c-.017-.41-.038-.655-.063-.728-.025-.075-.127-.11-.31-.11h-.961c-.182 0-.272-.06-.272-.175 0-.102.14-.16.415-.173 1.087-.047 2.02-.304 2.8-.768l.244-.147c.13.246.195.697.195 1.354v7.926c0 .655.012 1.04.036 1.156.025.113.11.187.26.22.247.066.608.1 1.086.1.23 0 .345.066.345.197m-1.85-15.368c0 .74-.372 1.11-1.113 1.11-.312 0-.576-.104-.79-.31-.214-.206-.32-.456-.32-.752 0-.773.37-1.16 1.11-1.16.74 0 1.112.37 1.112 1.11M96.835 92.265c0 .28-.292.57-.873.876-.58.306-1.14.458-1.682.458-1.13 0-1.72-.584-1.77-1.752-.623 1.217-1.588 1.825-2.9 1.825-.704 0-1.285-.21-1.742-.627-.46-.42-.688-.96-.688-1.616 0-1.35.807-2.417 2.42-3.208.556-.263 1.52-.526 2.888-.79v-.615c0-1.447-.075-2.4-.223-2.863-.262-.838-.855-1.256-1.777-1.256-.577 0-1.058.154-1.444.467-.388.313-.582.707-.582 1.186 0 .13.1.194.302.194.202 0 .382.1.543.297s.242.42.242.667c0 .724-.36 1.086-1.076 1.086-.375 0-.684-.128-.93-.383s-.365-.58-.365-.975c0-.773.304-1.438.913-1.998.674-.607 1.613-.912 2.814-.912 1.81 0 2.922.494 3.334 1.48.15.38.224 1.125.224 2.244v4.612c0 .756.007 1.2.023 1.332.083.592.322.887.716.887.46 0 .84-.163 1.137-.492.164-.18.287-.27.37-.27.084 0 .125.048.125.147M92.49 89.65v-1.8c-1.218.28-2.09.646-2.617 1.098-.527.452-.79 1.057-.79 1.812 0 .526.148.96.45 1.295.3.338.677.506 1.13.506.698 0 1.258-.394 1.68-1.183.098-.18.146-.756.146-1.727M116.812 93.214c0 .14-.125.21-.37.21-.167 0-.314-.008-.445-.023l-3.136-.1-3.135.1c-.116.017-.24.025-.37.025-.33 0-.495-.087-.495-.26 0-.188.22-.284.667-.284 1.45-.015 2.172-.16 2.172-.434 0-.017-.017-.08-.05-.193l-.203-.65-.126-.346c-.147-.51-.51-1.638-1.084-3.382h-5.28c-.985 2.63-1.478 4.144-1.478 4.537 0 .232.1.37.296.42.05.018.46.05 1.235.1.477.016.715.098.715.246 0 .165-.214.247-.642.247-.757 0-1.64-.034-2.643-.1-.248-.017-.502-.024-.766-.024-.262 0-.517.028-.765.083-.133.027-.24.042-.322.042-.23 0-.346-.075-.346-.223 0-.15.26-.23.778-.247.52-.017.892-.096 1.124-.236.23-.142.412-.41.543-.806 2.117-6.07 3.84-10.947 5.17-14.627.04-.193.115-.412.23-.655l.106-.45c.048-.182.114-.27.198-.27.05 0 .09.047.124.146.214.64.7 1.982 1.456 4.02.593 1.596 2.065 5.6 4.42 12.014.13.373.3.61.506.71s.63.16 1.273.18c.428.014.642.092.642.232m-6.69-5.907l-1.332-3.678-1.187-3.42c-.694 1.82-1.53 4.186-2.503 7.097h5.022z"/><path fill="#120C15" d="M127.774 93.24c0 .123-.123.185-.37.185h-4.544c-.215 0-.322-.06-.322-.173 0-.082.045-.132.136-.148.09-.016.407-.03.95-.048.314-.017.495-.062.544-.136s.075-.34.075-.8v-4.725c0-1.788-.067-2.854-.198-3.2-.28-.737-.84-1.106-1.68-1.106-.824 0-1.515.36-2.075 1.082-.164.213-.246.508-.246.886v7.677c0 .198.176.305.527.32l.754.024c.167 0 .25.058.25.172s-.098.173-.296.173h-4.495c-.248 0-.37-.05-.37-.15 0-.102.147-.166.443-.195h.618c.246 0 .396-.058.444-.173l.075-.367v-5.365c0-1.87-.018-2.902-.05-3.1-.034-.195-.24-.295-.617-.295h-.716c-.33 0-.494-.06-.494-.184 0-.156.173-.236.52-.236.493-.016 1.027-.106 1.603-.27.576-.165.98-.354 1.21-.57.147-.13.263-.195.345-.195.116 0 .173.156.173.47v1.183c.855-1.102 1.958-1.652 3.31-1.652 1.184 0 2.04.436 2.567 1.307.296.494.445 1.432.445 2.812v5.625c0 .525.025.812.073.863.1.098.338.147.716.147h.444c.168 0 .25.053.25.16M135.454 91.92c0 .148-.207.41-.618.79-.708.64-1.547.96-2.52.96-.904 0-1.588-.228-2.047-.687-.265-.262-.397-1.034-.397-2.314v-7.334c-.016-.164-.107-.255-.272-.27h-.937c-.362 0-.543-.06-.543-.175 0-.112.09-.18.27-.194 1.276-.117 2.272-.75 2.993-1.897.1-.15.22-.227.368-.227.115 0 .172.06.172.173v.52c0 .688.032 1.133.1 1.33.148.034.395.05.74.05.905 0 1.507-.04 1.803-.124.066-.017.123-.023.173-.023.132 0 .198.07.198.21 0 .24-.667.356-2 .356h-1.014v4.562c0 2.303.058 3.746.173 4.33.116.583.494.876 1.137.876.542 0 1.15-.305 1.827-.914.064-.082.138-.123.222-.123.114 0 .172.04.172.122M141.06 93.227c0 .148-.14.223-.42.223.016 0-.182-.018-.594-.05-.493-.033-.905-.05-1.234-.05h-2.568c-.082.066-.182.1-.296.1-.182 0-.272-.06-.272-.183 0-.175.166-.263.494-.263.625-.016.967-.06 1.025-.135.057-.075.086-.417.086-1.024v-7.474c-.015-.41-.035-.655-.06-.728-.025-.075-.128-.11-.31-.11h-.963c-.182 0-.272-.06-.272-.175 0-.102.138-.16.415-.173 1.088-.047 2.02-.304 2.802-.768l.243-.147c.13.246.195.697.195 1.354v7.926c0 .655.012 1.04.036 1.156.025.113.11.187.26.22.247.066.61.1 1.087.1.23 0 .346.066.346.197m-1.853-15.368c0 .74-.37 1.11-1.112 1.11-.312 0-.575-.104-.79-.31-.213-.206-.32-.456-.32-.752 0-.773.37-1.16 1.11-1.16.74 0 1.112.37 1.112 1.11M152.713 87.9c0 1.643-.466 3.017-1.4 4.118-.932 1.102-2.092 1.652-3.48 1.652-1.09 0-1.933-.394-2.527-1.184v5.747c0 .36.014.575.038.64.025.067.104.124.237.175.252.05.733.074 1.45.074.2 0 .302.073.302.22 0 .117-.107.175-.32.175H142.17c-.478 0-.715-.062-.715-.184 0-.158.098-.236.296-.236h.742c.478 0 .732-.106.765-.32.016-.1.024-.855.024-2.27V84.223c0-.46-.222-.674-.665-.64h-1.037c-.148 0-.223-.062-.223-.185 0-.157.182-.236.543-.236.905.018 1.73-.196 2.47-.642.214-.13.378-.196.494-.196.132 0 .218.062.26.185s.07.497.086 1.12c.61-.87 1.48-1.306 2.617-1.306 1.432 0 2.604.52 3.52 1.566.91 1.045 1.368 2.38 1.368 4.01m-2.197.01c0-1.285-.198-2.38-.595-3.287-.53-1.253-1.347-1.88-2.456-1.88-.578 0-1.075.202-1.488.606-.414.4-.637.893-.67 1.47-.033.725-.025 2.25.024 4.574.016 1.17.042 1.875.074 2.114.034.24.14.48.322.73.48.675 1.1 1.013 1.862 1.013.86 0 1.504-.362 1.935-1.087.662-1.104.993-2.522.993-4.252M164.664 88.047c0 1.594-.484 2.932-1.456 4.008-.97 1.078-2.18 1.616-3.63 1.616-1.498 0-2.75-.537-3.754-1.615-1.004-1.076-1.506-2.414-1.506-4.008 0-1.645.49-3.01 1.47-4.096.98-1.084 2.2-1.626 3.666-1.626 1.482 0 2.72.547 3.718 1.64.994 1.094 1.492 2.454 1.492 4.083m-2.247-.025c0-1.81-.28-3.216-.84-4.22-.41-.738-1.103-1.107-2.073-1.107-.922 0-1.643.47-2.16 1.418-.52.944-.778 2.257-.778 3.934 0 1.662.275 2.957.827 3.885.55.93 1.32 1.394 2.31 1.394.757 0 1.316-.287 1.678-.862.69-1.087 1.037-2.567 1.037-4.442M171.085 93.202c0 .147-.107.223-.32.223h-.297c-.033 0-.47-.018-1.31-.05h-.765c-.132 0-.79.012-1.976.037-.1.008-.198.013-.296.013-.247.017-.37-.053-.37-.208 0-.108.09-.162.27-.162h.644c.46 0 .69-.1.69-.297.018-.098.026-.74.026-1.923V78.278c0-.542-.018-.838-.05-.888-.05-.132-.182-.197-.396-.197H166.046c-.23 0-.347-.07-.347-.21 0-.124.206-.194.617-.21.79-.05 1.522-.23 2.197-.543l.52-.246.197-.073c.133.477.19 1.2.174 2.17V91.92c0 .492.007.785.024.875.017.09.073.152.173.186.018.018.322.034.914.05.382 0 .57.058.57.172M177.38 93.227c0 .148-.14.223-.418.223.016 0-.182-.018-.594-.05-.493-.033-.905-.05-1.234-.05h-2.568c-.082.066-.182.1-.296.1-.182 0-.27-.06-.27-.183 0-.175.163-.263.492-.263.626-.016.967-.06 1.024-.135.057-.075.086-.417.086-1.024v-7.474c-.016-.41-.036-.655-.062-.728-.024-.075-.127-.11-.31-.11h-.962c-.182 0-.27-.06-.27-.175 0-.102.137-.16.412-.173 1.088-.047 2.022-.304 2.802-.768l.245-.147c.13.246.193.697.193 1.354v7.926c0 .655.013 1.04.038 1.156.024.113.11.187.26.22.245.066.607.1 1.085.1.234 0 .348.066.348.197m-1.85-15.368c0 .74-.372 1.11-1.11 1.11-.314 0-.578-.104-.792-.31-.214-.206-.32-.456-.32-.752 0-.773.37-1.16 1.11-1.16.74 0 1.11.37 1.11 1.11M185.998 90.234c0 .957-.347 1.768-1.04 2.435-.695.667-1.526 1-2.49 1-.557 0-1.234-.197-2.036-.59-.212-.117-.4-.174-.563-.174-.23 0-.4.156-.516.47-.065.196-.156.295-.27.295-.115 0-.173-.064-.173-.197V90.17c0-.18.06-.272.174-.272.132 0 .207.09.223.272.1.764.312 1.36.642 1.79.658.86 1.54 1.292 2.642 1.292.594 0 1.07-.173 1.433-.52.362-.346.544-.808.544-1.385 0-.643-.208-1.152-.62-1.532-.23-.216-.44-.366-.63-.457-.188-.09-.743-.31-1.665-.656-1.828-.69-2.742-1.73-2.742-3.114 0-.923.31-1.697.932-2.324.62-.626 1.388-.94 2.303-.94.327 0 .816.1 1.47.297.164.05.31.076.44.076.343 0 .556-.166.638-.494.05-.164.123-.248.22-.248.115 0 .173.066.173.198v1.182c-.02.396.022 1.028.122 1.9v.05c0 .13-.066.195-.198.195-.098 0-.223-.247-.37-.745-.182-.598-.498-1.08-.95-1.444-.453-.364-.977-.547-1.568-.547-.56 0-1.02.173-1.383.52-.36.347-.543.782-.543 1.31 0 .825.55 1.45 1.653 1.88 1.713.675 2.8 1.236 3.26 1.682.59.574.885 1.276.885 2.1"/></svg>