<?xml version="1.0" encoding="utf-8"?>
<!-- Generator: Adobe Illustrator 16.0.4, SVG Export Plug-In . SVG Version: 6.00 Build 0)  -->
<!DOCTYPE svg PUBLIC "-//W3C//DTD SVG 1.1//EN" "http://www.w3.org/Graphics/SVG/1.1/DTD/svg11.dtd">
<svg version="1.1" id="Calque_1" xmlns="http://www.w3.org/2000/svg" xmlns:xlink="http://www.w3.org/1999/xlink" x="0px" y="0px"
	 width="186.095px" height="120.047px" viewBox="0 0 186.095 120.047" enable-background="new 0 0 186.095 120.047"
	 xml:space="preserve">
<g>
	<path fill-rule="evenodd" clip-rule="evenodd" fill="#17BCE2" d="M79.639,86.041C75.537,94.72,60.307,107.52,46.8,107.52
		c-9.408,0-16.162-3.857-20.749-8.924c-2.777-3.098-5.221-7.766-6.51-15.618c0.006,10.998,0.054,22.857,0.404,32.646
		c5.87,2.898,12.947,4.424,21.066,4.424c15.087,0,29.884-8.592,38.116-23.33L79.639,86.041z"/>
	<path fill-rule="evenodd" clip-rule="evenodd" fill="#8DD0BC" d="M96.961,32.088c0.255-9.723,0.634-19.484,1.226-29.635
		c-3.139,0.717-6.275,1.199-9.895,1.199c-3.614,0-6.753-0.482-10.126-1.199c0.021,0.656,0.051,1.338,0.075,2.021
		C88.609,9.594,95.185,19.04,96.961,32.088"/>
	<path fill-rule="evenodd" clip-rule="evenodd" fill="#17BCE2" d="M18.824,33.463c4.103-8.675,19.054-20.886,32.56-20.886
		c9.405,0,16.164,3.858,20.746,8.918c2.78,3.11,5.224,7.77,6.512,15.632c-0.007-11-0.05-22.862-0.401-32.653
		c-5.872-2.903-12.95-4.427-21.068-4.427c-15.086,0-29.999,8.944-38.229,23.684L18.824,33.463z"/>
	<path fill-rule="evenodd" clip-rule="evenodd" fill="#FFE830" d="M1.223,88.011C0.968,97.734,0.589,107.49,0,117.65
		c3.137-0.721,6.272-1.205,9.893-1.205c3.613,0,6.754,0.484,10.132,1.205c-0.026-0.666-0.054-1.336-0.078-2.027
		C9.575,110.499,3.003,101.057,1.223,88.011"/>
	<path fill-rule="evenodd" clip-rule="evenodd" fill="#8DD0BC" d="M18.574,69.445c0-15.771,0.486-46.263,0.486-46.263
		c0-6.662,0.004-13.556,0.466-20.448c-2.89,0.555-5.745,0.916-8.428,0.916c-0.112,0-0.234-0.01-0.349-0.01
		c-0.204,0.006-0.414,0.02-0.618,0.02c-3.054,0-6.11-0.458-9.166-1.149c0.057,2.977,0.104,5.953,0.16,8.915
		c0.408,10.761,0.567,21.854,0.567,32.968c0,15.179-0.098,29.361-0.468,43.614c1.778,13.049,8.348,22.491,18.724,27.621
		c-0.354-9.795-0.402-21.653-0.407-32.651C18.93,79.244,18.574,74.797,18.574,69.445"/>
	<path fill-rule="evenodd" clip-rule="evenodd" fill="#FFE830" d="M96.961,32.088C95.185,19.04,88.609,9.594,78.241,4.475
		c0.352,9.793,0.393,21.649,0.401,32.654c0.611,3.73,0.969,8.173,0.969,13.522c0,15.772-0.485,46.265-0.485,46.265
		c0,6.663-0.004,13.554-0.468,20.456c2.885-0.558,5.743-0.927,8.43-0.927c0.11,0,0.23,0.01,0.346,0.014
		c0.208-0.004,0.413-0.021,0.618-0.021c3.056,0,6.113,0.466,9.168,1.152c-0.053-2.982-0.104-5.96-0.158-8.924
		c-0.41-10.762-0.562-21.852-0.562-32.957C96.499,60.519,96.589,46.348,96.961,32.088"/>
	<path fill="#120C15" d="M62.649,44.574c0,0.15-0.151,0.225-0.453,0.225h-0.362h-1.479h-3.501h-0.21
		c-0.262,0-0.393-0.07-0.393-0.211c0-0.1,0.056-0.159,0.166-0.18c0.111-0.021,0.499-0.041,1.161-0.061
		c0.383-0.019,0.604-0.074,0.665-0.165c0.06-0.091,0.09-0.416,0.09-0.978V37.43c0-2.186-0.081-3.489-0.241-3.91
		c-0.343-0.902-1.025-1.354-2.052-1.354c-1.006,0-1.852,0.441-2.535,1.323c-0.202,0.261-0.302,0.622-0.302,1.084v9.384
		c0,0.24,0.214,0.372,0.645,0.391l0.92,0.029c0.204,0,0.307,0.072,0.307,0.211c0,0.141-0.121,0.211-0.362,0.211h-0.483h-2.112
		h-1.433H49.4h-0.181c-0.302,0-0.453-0.061-0.453-0.186c0-0.121,0.181-0.201,0.543-0.237h0.755c0.302,0,0.482-0.069,0.543-0.21
		l0.091-0.451V37.16c0-2.285-0.021-3.548-0.061-3.788c-0.041-0.24-0.292-0.362-0.755-0.362h-0.724h-0.151
		c-0.403,0-0.604-0.074-0.604-0.224c0-0.192,0.211-0.287,0.634-0.287c0.604-0.021,1.257-0.132,1.962-0.333
		c0.704-0.2,1.197-0.432,1.479-0.692c0.182-0.161,0.322-0.241,0.423-0.241c0.141,0,0.211,0.191,0.211,0.572v1.447
		c1.045-1.346,2.394-2.02,4.043-2.02c1.449,0,2.495,0.531,3.139,1.598c0.362,0.604,0.543,1.749,0.543,3.437v6.874
		c0,0.644,0.03,0.995,0.09,1.057c0.121,0.12,0.412,0.179,0.875,0.179h0.332h0.211C62.548,44.376,62.649,44.443,62.649,44.574"/>
	<path fill="#120C15" d="M70.828,44.558c0,0.182-0.172,0.272-0.513,0.272c0.019,0-0.222-0.021-0.725-0.062
		c-0.604-0.04-1.107-0.06-1.51-0.06h-3.138c-0.101,0.08-0.222,0.121-0.363,0.121c-0.221,0-0.332-0.074-0.332-0.225
		c0-0.212,0.201-0.318,0.604-0.318c0.765-0.02,1.182-0.075,1.252-0.166s0.105-0.507,0.105-1.251v-9.136
		c-0.021-0.503-0.045-0.799-0.075-0.89c-0.031-0.091-0.157-0.135-0.378-0.135h-0.875H64.58c-0.221,0-0.332-0.07-0.332-0.211
		c0-0.124,0.168-0.193,0.506-0.212c1.329-0.058,2.472-0.371,3.425-0.939l0.298-0.176c0.158,0.302,0.238,0.853,0.238,1.654v0.3v1.175
		v8.212c0,0.803,0.015,1.272,0.045,1.412c0.029,0.141,0.136,0.231,0.316,0.272c0.302,0.079,0.744,0.12,1.328,0.12
		C70.687,44.317,70.828,44.396,70.828,44.558 M68.564,25.775c0,0.904-0.453,1.356-1.358,1.356c-0.382,0-0.705-0.126-0.965-0.378
		c-0.262-0.25-0.393-0.557-0.393-0.92c0-0.943,0.453-1.415,1.358-1.415S68.564,24.87,68.564,25.775"/>
	<path fill="#120C15" d="M84.378,31.775c0,0.141-0.192,0.211-0.573,0.211h-0.543h-0.182c-0.362,0-0.645,0.221-0.845,0.664
		c-0.12,0.382-0.24,0.766-0.362,1.148l-2.535,7.797c-0.142,0.402-0.343,1.017-0.604,1.843c-0.322,1.107-0.584,1.661-0.785,1.661
		c-0.141,0-0.282-0.19-0.423-0.571c-0.101-0.241-0.201-0.513-0.302-0.814c-1.63-4.401-2.455-6.592-2.475-6.573
		c-1.046-3.01-1.681-4.646-1.901-4.911c-0.181-0.182-0.463-0.264-0.845-0.243h-0.694c-0.201,0-0.302-0.066-0.302-0.196
		c0-0.132,0.141-0.196,0.423-0.196h2.112h1.901h1.6h0.15c0.201,0,0.302,0.07,0.302,0.211c0,0.162-0.312,0.243-0.935,0.243
		c-0.624,0-0.936,0.081-0.936,0.241c0,0.222,0.085,0.556,0.254,1c0.325,0.803,0.953,2.529,1.886,5.181
		c0.399,1.187,0.729,2.092,0.99,2.716c0.565-1.796,1.069-3.34,1.513-4.632c0.889-2.622,1.333-4.055,1.333-4.295
		c0-0.182-0.151-0.272-0.453-0.272h-0.392h-0.272c-0.262,0-0.393-0.07-0.393-0.211c0-0.12,0.121-0.182,0.363-0.182h1.871h1.147
		C84.077,31.573,84.378,31.635,84.378,31.775"/>
	<path fill="#120C15" d="M96.39,41.452c0,0.202-0.155,0.558-0.467,1.071c-0.313,0.512-0.63,0.93-0.951,1.25
		C94.106,44.658,92.949,45.1,91.5,45.1c-1.811,0-3.325-0.652-4.541-1.959c-1.219-1.307-1.827-2.925-1.827-4.854
		c0-2.01,0.579-3.688,1.736-5.035c1.156-1.348,2.6-2.02,4.33-2.02c1.428,0,2.626,0.417,3.592,1.25
		c0.965,0.834,1.479,1.906,1.54,3.211c-0.645,0.102-1.5,0.141-2.565,0.122h-2.114c-0.141,0-1.348,0.029-3.621,0.088
		c-0.101,0.662-0.151,1.294-0.151,1.894c0,2.023,0.387,3.58,1.162,4.672s1.866,1.638,3.275,1.638c0.804,0,1.449-0.182,1.931-0.544
		c0.483-0.361,1.006-1.056,1.57-2.08c0.079-0.16,0.19-0.241,0.331-0.241C96.31,41.241,96.39,41.312,96.39,41.452 M93.765,35.303
		c-0.081-2.412-0.946-3.618-2.596-3.618c-1.63,0-2.647,1.206-3.048,3.618H93.765z"/>
	<path fill="#120C15" d="M108.1,33.343c0,0.463-0.141,0.844-0.422,1.146c-0.283,0.302-0.645,0.451-1.087,0.451
		c-0.363,0-0.664-0.105-0.905-0.316s-0.363-0.478-0.363-0.799c0-0.281,0.091-0.522,0.272-0.723c0.182-0.201,0.271-0.342,0.271-0.422
		c0-0.303-0.221-0.453-0.664-0.453c-0.564,0-1.046,0.35-1.449,1.051c-0.463,0.82-0.694,2.339-0.694,4.56v5.94
		c0,0.24,0.086,0.391,0.256,0.449c0.171,0.062,0.69,0.1,1.554,0.12c0.221,0.041,0.333,0.12,0.333,0.241
		c0,0.141-0.132,0.211-0.393,0.211h-1.298h-2.294h-1.267h-0.996c-0.322,0-0.482-0.06-0.482-0.18c0-0.121,0.13-0.182,0.391-0.182
		h0.423c0.683,0,1.085-0.08,1.207-0.243c0.04-0.079,0.06-0.454,0.06-1.12V34.74c0-1.11-0.166-1.752-0.498-1.925
		c-0.333-0.171-0.86-0.267-1.583-0.287c-0.242,0-0.363-0.07-0.363-0.211s0.101-0.211,0.302-0.211h0.211
		c0.302,0,0.605,0.015,0.905,0.044c0.303,0.031,0.434,0.047,0.393,0.047c0.744,0,1.57-0.211,2.476-0.633l0.393-0.182l0.24-0.091
		c0.081,0.483,0.122,0.966,0.122,1.447v0.604c0.643-1.368,1.548-2.051,2.716-2.051c0.645,0,1.178,0.196,1.6,0.589
		C107.889,32.271,108.1,32.76,108.1,33.343"/>
	<path fill="#120C15" d="M119.026,40.901c0,1.167-0.426,2.159-1.274,2.976c-0.85,0.815-1.863,1.225-3.042,1.225
		c-0.68,0-1.509-0.242-2.487-0.725c-0.261-0.141-0.489-0.211-0.69-0.211c-0.28,0-0.489,0.192-0.628,0.573
		c-0.081,0.24-0.19,0.362-0.331,0.362c-0.139,0-0.209-0.081-0.209-0.242v-0.361v-1.78v-0.722V41.15v-0.331
		c0-0.222,0.07-0.331,0.212-0.331c0.16,0,0.25,0.111,0.271,0.334c0.12,0.932,0.382,1.66,0.785,2.186
		c0.804,1.055,1.881,1.58,3.229,1.58c0.725,0,1.308-0.212,1.75-0.634c0.442-0.423,0.665-0.987,0.665-1.693
		c0-0.785-0.252-1.409-0.754-1.872c-0.283-0.262-0.539-0.448-0.771-0.56s-0.911-0.378-2.038-0.802
		c-2.232-0.845-3.35-2.115-3.35-3.807c0-1.128,0.379-2.074,1.138-2.84c0.757-0.767,1.696-1.148,2.815-1.148
		c0.398,0,0.998,0.119,1.794,0.361c0.201,0.061,0.379,0.091,0.541,0.091c0.419,0,0.678-0.202,0.778-0.604
		c0.06-0.2,0.149-0.302,0.27-0.302c0.139,0,0.209,0.08,0.209,0.242v0.18v1.266c-0.021,0.483,0.031,1.257,0.151,2.323v0.06
		c0,0.16-0.081,0.24-0.242,0.24c-0.12,0-0.271-0.303-0.453-0.912c-0.221-0.729-0.608-1.318-1.162-1.764
		c-0.554-0.447-1.192-0.671-1.916-0.671c-0.686,0-1.248,0.212-1.69,0.636s-0.665,0.958-0.665,1.603c0,1.007,0.675,1.772,2.023,2.296
		c2.092,0.827,3.42,1.512,3.984,2.055C118.663,39.038,119.026,39.894,119.026,40.901"/>
	<path fill="#120C15" d="M127.868,44.558c0,0.182-0.171,0.272-0.513,0.272c0.019,0-0.221-0.021-0.724-0.062
		c-0.605-0.04-1.107-0.06-1.51-0.06h-3.139c-0.1,0.08-0.221,0.121-0.362,0.121c-0.221,0-0.331-0.074-0.331-0.225
		c0-0.212,0.201-0.318,0.604-0.318c0.763-0.02,1.182-0.075,1.252-0.166s0.105-0.507,0.105-1.251v-9.136
		c-0.021-0.503-0.045-0.799-0.075-0.89c-0.031-0.091-0.157-0.135-0.378-0.135h-0.876h-0.302c-0.221,0-0.331-0.07-0.331-0.211
		c0-0.124,0.168-0.193,0.505-0.212c1.33-0.058,2.471-0.371,3.425-0.939l0.297-0.176c0.16,0.302,0.239,0.853,0.239,1.654v0.3v1.175
		v8.212c0,0.803,0.015,1.272,0.045,1.412c0.031,0.141,0.136,0.231,0.316,0.272c0.302,0.079,0.744,0.12,1.329,0.12
		C127.728,44.317,127.868,44.396,127.868,44.558 M125.605,25.775c0,0.904-0.453,1.356-1.358,1.356c-0.382,0-0.705-0.126-0.965-0.378
		c-0.262-0.25-0.394-0.557-0.394-0.92c0-0.943,0.454-1.415,1.359-1.415S125.605,24.87,125.605,25.775"/>
	<path fill="#120C15" d="M138.038,42.961c0,0.18-0.252,0.501-0.755,0.964c-0.865,0.784-1.891,1.177-3.077,1.177
		c-1.107,0-1.942-0.281-2.505-0.843c-0.322-0.321-0.483-1.263-0.483-2.827v-8.965c-0.021-0.199-0.132-0.311-0.333-0.331h-1.146
		c-0.442,0-0.664-0.07-0.664-0.211s0.11-0.22,0.33-0.24c1.558-0.144,2.778-0.915,3.659-2.319c0.118-0.183,0.27-0.273,0.449-0.273
		c0.14,0,0.21,0.07,0.21,0.211v0.12v0.513c0,0.844,0.039,1.387,0.12,1.627c0.182,0.041,0.483,0.061,0.905,0.061
		c1.107,0,1.841-0.05,2.204-0.149c0.079-0.021,0.151-0.03,0.211-0.03c0.161,0,0.242,0.086,0.242,0.259
		c0,0.29-0.816,0.434-2.445,0.434h-1.237v5.578c0,2.813,0.07,4.579,0.211,5.291c0.141,0.715,0.604,1.071,1.389,1.071
		c0.665,0,1.407-0.371,2.233-1.115c0.079-0.102,0.17-0.152,0.271-0.152C137.968,42.809,138.038,42.859,138.038,42.961"/>
	<path fill="#120C15" d="M150.413,41.452c0,0.202-0.157,0.558-0.469,1.071c-0.312,0.512-0.629,0.93-0.951,1.25
		c-0.865,0.885-2.021,1.328-3.47,1.328c-1.811,0-3.325-0.654-4.543-1.961c-1.217-1.307-1.825-2.925-1.825-4.854
		c0-2.01,0.577-3.688,1.734-5.035c1.157-1.346,2.601-2.02,4.332-2.02c1.428,0,2.625,0.417,3.592,1.25
		c0.965,0.834,1.478,1.904,1.538,3.211c-0.644,0.102-1.499,0.141-2.565,0.122h-2.112c-0.142,0-1.348,0.029-3.621,0.089
		c-0.101,0.661-0.15,1.293-0.15,1.893c0,2.023,0.387,3.58,1.161,4.672c0.773,1.092,1.866,1.638,3.274,1.638
		c0.804,0,1.448-0.182,1.932-0.544c0.482-0.361,1.007-1.056,1.569-2.08c0.08-0.16,0.191-0.241,0.332-0.241
		C150.332,41.241,150.413,41.312,150.413,41.452 M147.786,35.303c-0.08-2.412-0.946-3.618-2.596-3.618
		c-1.629,0-2.646,1.206-3.048,3.618H147.786z M149.175,24.719l-2.746,2.883c-1.207,1.275-1.912,1.912-2.112,1.912
		c-0.122,0-0.182-0.05-0.182-0.15c0-0.04,0.021-0.102,0.06-0.181c0.222-0.544,0.554-1.327,0.996-2.353l0.967-2.111h0.995h0.423
		h1.057H149.175z"/>
	<path fill="#120C15" d="M30.537,34.959c0.04-0.978,0.059-1.947,0.059-2.911c0-0.911-0.006-1.899-0.019-2.968
		c-0.014-1.066-0.034-2.147-0.06-3.242c0.651,0.131,1.199,0.195,1.642,0.195c0.417,0,0.952-0.064,1.603-0.195
		c-0.131,1.563-0.229,3.274-0.293,5.137c-0.065,1.861-0.098,3.769-0.098,5.723c0,1.354,0.118,2.388,0.352,3.104
		c0.234,0.717,0.521,1.258,0.86,1.622c0.365,0.416,0.827,0.762,1.388,1.034c0.561,0.273,1.218,0.41,1.975,0.41
		c1.095,0,2.007-0.24,2.737-0.723c0.729-0.481,1.264-1.073,1.603-1.776c0.182-0.442,0.326-0.82,0.43-1.134
		c0.104-0.312,0.189-0.729,0.254-1.248c0.065-0.521,0.104-1.225,0.117-2.109s0.02-2.096,0.02-3.633v-3.281
		c0-0.572-0.007-1.119-0.02-1.641c-0.013-0.52-0.033-1.016-0.059-1.484c0.287,0.053,0.56,0.099,0.821,0.137
		c0.261,0.039,0.534,0.059,0.821,0.059c0.286,0,0.561-0.02,0.821-0.059c0.261-0.038,0.521-0.084,0.782-0.137
		c-0.131,2.032-0.21,3.99-0.235,5.879S46,35.602,46,37.711c0,1.172,0.014,2.318,0.039,3.438c0.025,1.121,0.065,2.201,0.118,3.242
		c-0.522-0.053-1.03-0.079-1.525-0.079s-1.003,0.026-1.524,0.079c0.025-0.234,0.045-0.48,0.059-0.742
		c0.013-0.26,0.02-0.532,0.02-0.819v-1.681h-0.078c-0.679,1.25-1.552,2.167-2.62,2.754c-1.068,0.585-2.228,0.879-3.479,0.879
		c-2.033,0-3.63-0.54-4.79-1.621c-1.16-1.081-1.74-2.637-1.74-4.667C30.479,37.113,30.499,35.936,30.537,34.959"/>
	<path fill="none" stroke="#120C15" stroke-width="0.6849" d="M30.537,34.959c0.04-0.978,0.059-1.947,0.059-2.911
		c0-0.911-0.006-1.899-0.019-2.968c-0.014-1.066-0.034-2.147-0.06-3.242c0.651,0.131,1.199,0.195,1.642,0.195
		c0.417,0,0.952-0.064,1.603-0.195c-0.131,1.563-0.229,3.274-0.293,5.137c-0.065,1.861-0.098,3.769-0.098,5.723
		c0,1.354,0.118,2.388,0.352,3.104c0.234,0.717,0.521,1.258,0.86,1.622c0.365,0.416,0.827,0.762,1.388,1.034
		c0.561,0.273,1.218,0.41,1.975,0.41c1.095,0,2.007-0.24,2.737-0.723c0.729-0.481,1.264-1.073,1.603-1.776
		c0.182-0.442,0.326-0.82,0.43-1.134c0.104-0.312,0.189-0.729,0.254-1.248c0.065-0.521,0.104-1.225,0.117-2.109
		s0.02-2.096,0.02-3.633v-3.281c0-0.572-0.007-1.119-0.02-1.641c-0.013-0.52-0.033-1.016-0.059-1.484
		c0.287,0.053,0.56,0.099,0.821,0.137c0.261,0.039,0.534,0.059,0.821,0.059c0.286,0,0.561-0.02,0.821-0.059
		c0.261-0.038,0.521-0.084,0.782-0.137c-0.131,2.032-0.21,3.99-0.235,5.879S46,35.602,46,37.711c0,1.172,0.014,2.318,0.039,3.438
		c0.025,1.121,0.065,2.201,0.118,3.242c-0.522-0.053-1.03-0.079-1.525-0.079s-1.003,0.026-1.524,0.079
		c0.025-0.234,0.045-0.48,0.059-0.742c0.013-0.26,0.02-0.532,0.02-0.819v-1.681h-0.078c-0.679,1.25-1.552,2.167-2.62,2.754
		c-1.068,0.585-2.228,0.879-3.479,0.879c-2.033,0-3.63-0.54-4.79-1.621c-1.16-1.081-1.74-2.637-1.74-4.667
		C30.479,37.113,30.499,35.936,30.537,34.959z"/>
	<path fill="#120C15" d="M54.217,68.17c0,0.147-0.141,0.221-0.421,0.221c0.017,0-0.181-0.016-0.592-0.049
		c-0.494-0.033-0.906-0.049-1.235-0.049h-2.568c-0.083,0.065-0.181,0.098-0.296,0.098c-0.181,0-0.271-0.061-0.271-0.184
		c0-0.174,0.164-0.26,0.494-0.26c0.625-0.017,0.967-0.062,1.024-0.135c0.058-0.075,0.086-0.416,0.086-1.024v-7.476
		c-0.017-0.41-0.037-0.652-0.062-0.727s-0.128-0.111-0.309-0.111h-0.716h-0.247c-0.181,0-0.271-0.059-0.271-0.172
		c0-0.102,0.138-0.158,0.414-0.174c1.088-0.048,2.022-0.305,2.802-0.769l0.244-0.144c0.129,0.246,0.196,0.697,0.196,1.354v0.246
		v0.959v6.72c0,0.656,0.012,1.042,0.036,1.155c0.025,0.116,0.111,0.189,0.26,0.223c0.247,0.066,0.608,0.099,1.086,0.099
		C54.101,67.972,54.217,68.037,54.217,68.17 M52.364,52.802c0,0.739-0.371,1.11-1.112,1.11c-0.312,0-0.576-0.103-0.79-0.309
		c-0.215-0.207-0.321-0.456-0.321-0.754c0-0.771,0.37-1.158,1.111-1.158C51.994,51.691,52.364,52.061,52.364,52.802"/>
	<path fill="#120C15" d="M64.314,59.807c0,0.758-0.371,1.135-1.111,1.135c-0.724,0-1.087-0.346-1.087-1.035
		c0-0.182,0.083-0.453,0.247-0.814c0.05-0.115,0.075-0.23,0.075-0.346c0-0.328-0.169-0.601-0.506-0.814
		c-0.337-0.214-0.762-0.32-1.271-0.32c-0.988,0-1.753,0.429-2.297,1.283c-0.543,0.855-0.815,2.057-0.815,3.602
		c0,1.743,0.28,3.086,0.84,4.033c0.56,0.944,1.35,1.418,2.371,1.418c0.691,0,1.308-0.215,1.852-0.643
		c0.247-0.195,0.568-0.574,0.963-1.135c0.082-0.08,0.156-0.121,0.222-0.121c0.165,0,0.247,0.065,0.247,0.195
		c0,0.215-0.288,0.617-0.864,1.209c-0.741,0.773-1.688,1.16-2.84,1.16c-1.449,0-2.646-0.519-3.592-1.555
		c-0.947-1.035-1.42-2.344-1.42-3.921c0-1.694,0.502-3.097,1.506-4.207c1.002-1.11,2.262-1.664,3.777-1.664
		c0.972,0,1.831,0.255,2.581,0.765S64.314,59.133,64.314,59.807"/>
	<path fill="#120C15" d="M74.76,65.628c0,0.164-0.128,0.457-0.383,0.876c-0.256,0.419-0.515,0.76-0.778,1.023
		c-0.708,0.725-1.654,1.086-2.84,1.086c-1.481,0-2.72-0.535-3.716-1.604s-1.494-2.393-1.494-3.972c0-1.644,0.473-3.018,1.419-4.119
		s2.128-1.652,3.543-1.652c1.169,0,2.148,0.341,2.938,1.022c0.791,0.683,1.21,1.559,1.26,2.628
		c-0.527,0.082-1.227,0.116-2.099,0.099h-1.729c-0.116,0-1.103,0.024-2.963,0.074c-0.082,0.541-0.123,1.057-0.123,1.549
		c0,1.653,0.316,2.928,0.951,3.821c0.634,0.892,1.526,1.339,2.679,1.339c0.658,0,1.185-0.148,1.581-0.443
		c0.394-0.297,0.822-0.863,1.284-1.703c0.065-0.13,0.156-0.197,0.271-0.197C74.693,65.455,74.76,65.514,74.76,65.628 M72.611,60.596
		c-0.066-1.973-0.774-2.96-2.123-2.96c-1.334,0-2.166,0.987-2.494,2.96H72.611z"/>
	<path fill="#120C15" d="M42.091,52.953c-0.756-1.002-1.799-1.505-3.128-1.505c-1.825,0-3.161,0.562-4.008,1.681
		c-0.847,1.12-1.271,2.695-1.271,4.725v3.321c0,1.171,0.02,2.401,0.06,3.69c0.039,1.289,0.123,2.455,0.253,3.494
		c-0.6-0.051-1.186-0.077-1.759-0.077c-0.574,0-1.16,0.026-1.76,0.077c0.131-1.039,0.215-2.205,0.254-3.494s0.059-2.52,0.059-3.69
		v-4.063c0-1.17-0.019-2.4-0.059-3.689s-0.124-2.494-0.254-3.614c0.729,0.132,1.316,0.196,1.76,0.196
		c0.208,0,0.436-0.021,0.684-0.059s0.542-0.085,0.88-0.138c-0.078,1.043-0.117,2.085-0.117,3.126h0.078
		c0.732-1.119,1.608-1.986,2.628-2.599c1.02-0.61,2.235-0.917,3.647-0.917c0.732,0,1.47,0.104,2.216,0.313
		c0.745,0.208,1.419,0.565,2.02,1.072c0.601,0.509,1.092,1.198,1.471,2.071c0.378,0.873,0.568,1.986,0.568,3.338
		c0,1.121-0.026,2.272-0.079,3.457c-0.052,1.186-0.077,2.441-0.077,3.768v2.541c0,0.417,0.006,0.826,0.019,1.23
		c0.014,0.404,0.032,0.787,0.059,1.15c-0.527-0.051-1.081-0.077-1.661-0.077c-0.555,0-1.096,0.026-1.622,0.077
		c0.051-1.354,0.11-2.746,0.176-4.178c0.064-1.432,0.098-2.902,0.098-4.413v-2.384C43.225,55.433,42.847,53.956,42.091,52.953"/>
	<path fill="none" stroke="#120C15" stroke-width="0.6849" d="M42.091,52.953c-0.756-1.002-1.799-1.505-3.128-1.505
		c-1.825,0-3.161,0.562-4.008,1.681c-0.847,1.12-1.271,2.695-1.271,4.725v3.321c0,1.171,0.02,2.401,0.06,3.69
		c0.039,1.289,0.123,2.455,0.253,3.494c-0.6-0.051-1.186-0.077-1.759-0.077c-0.574,0-1.16,0.026-1.76,0.077
		c0.131-1.039,0.215-2.205,0.254-3.494s0.059-2.52,0.059-3.69v-4.063c0-1.17-0.019-2.4-0.059-3.689s-0.124-2.494-0.254-3.614
		c0.729,0.132,1.316,0.196,1.76,0.196c0.208,0,0.436-0.021,0.684-0.059s0.542-0.085,0.88-0.138
		c-0.078,1.043-0.117,2.085-0.117,3.126h0.078c0.732-1.119,1.608-1.986,2.628-2.599c1.02-0.61,2.235-0.917,3.647-0.917
		c0.732,0,1.47,0.104,2.216,0.313c0.745,0.208,1.419,0.565,2.02,1.072c0.601,0.509,1.092,1.198,1.471,2.071
		c0.378,0.873,0.568,1.986,0.568,3.338c0,1.121-0.026,2.272-0.079,3.457c-0.052,1.186-0.077,2.441-0.077,3.768v2.541
		c0,0.417,0.006,0.826,0.019,1.23c0.014,0.404,0.032,0.787,0.059,1.15c-0.527-0.051-1.081-0.077-1.661-0.077
		c-0.555,0-1.096,0.026-1.622,0.077c0.051-1.354,0.11-2.746,0.176-4.178c0.064-1.432,0.098-2.902,0.098-4.413v-2.384
		C43.225,55.433,42.847,53.956,42.091,52.953z"/>
	<path fill="#120C15" d="M32.786,89.959c0.348,0.334,0.762,0.648,1.243,0.941c0.48,0.293,1.027,0.538,1.641,0.734
		c0.612,0.195,1.267,0.293,1.963,0.293c0.629,0,1.234-0.084,1.814-0.252c0.58-0.167,1.094-0.404,1.541-0.712
		c0.448-0.308,0.803-0.698,1.069-1.173c0.265-0.475,0.398-1.02,0.398-1.634c0-0.866-0.29-1.529-0.87-1.991
		c-0.581-0.459-1.301-0.838-2.163-1.131c-0.862-0.293-1.807-0.551-2.833-0.774c-1.028-0.223-1.972-0.538-2.833-0.943
		c-0.862-0.404-1.583-0.942-2.162-1.612c-0.58-0.67-0.87-1.592-0.87-2.765c0-0.923,0.182-1.767,0.547-2.534
		c0.364-0.77,0.895-1.432,1.59-1.99c0.696-0.559,1.558-0.998,2.586-1.32c1.026-0.32,2.203-0.482,3.528-0.482
		c1.226,0,2.262,0.141,3.106,0.42c0.845,0.279,1.648,0.531,2.411,0.754c-0.266,0.419-0.514,0.936-0.746,1.55
		c-0.232,0.615-0.381,1.09-0.448,1.425h-0.597c-0.265-0.67-0.778-1.271-1.54-1.801c-0.764-0.531-1.708-0.797-2.834-0.797
		c-0.497,0-0.994,0.07-1.491,0.209c-0.497,0.141-0.944,0.35-1.342,0.629s-0.729,0.643-0.994,1.09
		c-0.266,0.446-0.397,0.977-0.397,1.592c0,0.894,0.289,1.585,0.869,2.072c0.58,0.49,1.301,0.875,2.163,1.153
		c0.861,0.28,1.806,0.522,2.833,0.732c1.027,0.21,1.971,0.504,2.833,0.88c0.861,0.377,1.582,0.901,2.162,1.572
		c0.579,0.67,0.87,1.591,0.87,2.764c0,0.811-0.207,1.607-0.622,2.389c-0.414,0.781-1.011,1.488-1.788,2.116
		c-0.779,0.628-1.716,1.118-2.809,1.466c-1.093,0.35-2.335,0.523-3.728,0.523c-1.524,0-2.801-0.126-3.827-0.377
		c-1.027-0.252-1.889-0.545-2.584-0.88c0.199-0.362,0.405-0.858,0.621-1.487c0.215-0.628,0.323-1.152,0.323-1.571h0.597
		C32.182,89.316,32.438,89.623,32.786,89.959"/>
	<path fill="none" stroke="#120C15" stroke-width="0.6849" d="M32.786,89.959c0.348,0.334,0.762,0.648,1.243,0.941
		c0.48,0.293,1.027,0.538,1.641,0.734c0.612,0.195,1.267,0.293,1.963,0.293c0.629,0,1.234-0.084,1.814-0.252
		c0.58-0.167,1.094-0.404,1.541-0.712c0.448-0.308,0.803-0.698,1.069-1.173c0.265-0.475,0.398-1.02,0.398-1.634
		c0-0.866-0.29-1.529-0.87-1.991c-0.581-0.459-1.301-0.838-2.163-1.131c-0.862-0.293-1.807-0.551-2.833-0.774
		c-1.028-0.223-1.972-0.538-2.833-0.943c-0.862-0.404-1.583-0.942-2.162-1.612c-0.58-0.67-0.87-1.592-0.87-2.765
		c0-0.923,0.182-1.767,0.547-2.534c0.364-0.77,0.895-1.432,1.59-1.99c0.696-0.559,1.558-0.998,2.586-1.32
		c1.026-0.32,2.203-0.482,3.528-0.482c1.226,0,2.262,0.141,3.106,0.42c0.845,0.279,1.648,0.531,2.411,0.754
		c-0.266,0.419-0.514,0.936-0.746,1.55c-0.232,0.615-0.381,1.09-0.448,1.425h-0.597c-0.265-0.67-0.778-1.271-1.54-1.801
		c-0.764-0.531-1.708-0.797-2.834-0.797c-0.497,0-0.994,0.07-1.491,0.209c-0.497,0.141-0.944,0.35-1.342,0.629
		s-0.729,0.643-0.994,1.09c-0.266,0.446-0.397,0.977-0.397,1.592c0,0.894,0.289,1.585,0.869,2.072
		c0.58,0.49,1.301,0.875,2.163,1.153c0.861,0.28,1.806,0.522,2.833,0.732c1.027,0.21,1.971,0.504,2.833,0.88
		c0.861,0.377,1.582,0.901,2.162,1.572c0.579,0.67,0.87,1.591,0.87,2.764c0,0.811-0.207,1.607-0.622,2.389
		c-0.414,0.781-1.011,1.488-1.788,2.116c-0.779,0.628-1.716,1.118-2.809,1.466c-1.093,0.35-2.335,0.523-3.728,0.523
		c-1.524,0-2.801-0.126-3.827-0.377c-1.027-0.252-1.889-0.545-2.584-0.88c0.199-0.362,0.405-0.858,0.621-1.487
		c0.215-0.628,0.323-1.152,0.323-1.571h0.597C32.182,89.316,32.438,89.623,32.786,89.959z"/>
	<path fill="#120C15" d="M57.771,88.047c0,1.594-0.485,2.932-1.456,4.008c-0.972,1.078-2.181,1.616-3.63,1.616
		c-1.498,0-2.749-0.538-3.753-1.616c-1.005-1.076-1.506-2.414-1.506-4.008c0-1.645,0.489-3.01,1.469-4.096
		c0.979-1.085,2.202-1.627,3.667-1.627c1.482,0,2.72,0.547,3.717,1.641C57.274,85.058,57.771,86.418,57.771,88.047 M55.525,88.022
		c0-1.81-0.28-3.216-0.839-4.219c-0.412-0.739-1.103-1.108-2.074-1.108c-0.922,0-1.642,0.471-2.161,1.418
		c-0.519,0.944-0.778,2.257-0.778,3.934c0,1.662,0.275,2.957,0.827,3.885c0.552,0.93,1.321,1.394,2.31,1.394
		c0.757,0,1.316-0.287,1.679-0.862C55.18,91.377,55.525,89.897,55.525,88.022"/>
	<path fill="#120C15" d="M69.229,87.899c0,1.644-0.466,3.018-1.4,4.119c-0.933,1.102-2.093,1.652-3.48,1.652
		c-1.09,0-1.933-0.394-2.527-1.184v5.747c0,0.361,0.013,0.575,0.037,0.641c0.025,0.066,0.105,0.123,0.238,0.174
		c0.25,0.049,0.732,0.074,1.45,0.074c0.199,0,0.3,0.073,0.3,0.221c0,0.116-0.108,0.174-0.322,0.174h-0.469h-0.568h-0.642h-0.815
		h-1.037h-1.309c-0.478,0-0.715-0.062-0.715-0.184c0-0.158,0.099-0.236,0.296-0.236h0.741c0.478,0,0.731-0.106,0.765-0.32
		c0.016-0.1,0.025-0.855,0.025-2.27V84.223c0-0.46-0.223-0.674-0.667-0.641h-1.037c-0.148,0-0.222-0.061-0.222-0.184
		c0-0.157,0.181-0.236,0.543-0.236c0.904,0.018,1.728-0.196,2.469-0.642c0.214-0.13,0.379-0.196,0.494-0.196
		c0.132,0,0.218,0.062,0.259,0.185s0.07,0.498,0.087,1.122c0.609-0.871,1.481-1.307,2.617-1.307c1.432,0,2.605,0.521,3.519,1.566
		C68.772,84.935,69.229,86.271,69.229,87.899 M67.032,87.911c0-1.286-0.199-2.382-0.595-3.288c-0.53-1.253-1.349-1.88-2.456-1.88
		c-0.579,0-1.076,0.202-1.49,0.606c-0.413,0.402-0.636,0.894-0.669,1.471c-0.033,0.725-0.025,2.25,0.025,4.574
		c0.016,1.171,0.041,1.875,0.074,2.114c0.034,0.239,0.141,0.481,0.323,0.729c0.479,0.676,1.1,1.014,1.861,1.014
		c0.859,0,1.504-0.363,1.935-1.088C66.701,91.059,67.032,89.641,67.032,87.911"/>
	<path fill="#120C15" d="M81.082,93.227c0,0.133-0.14,0.198-0.42,0.198h-0.371h-3.852h-0.271c-0.214,0-0.321-0.065-0.321-0.198
		c0-0.113,0.312-0.171,0.938-0.171c0.378,0,0.597-0.046,0.654-0.136c0.057-0.09,0.086-0.397,0.086-0.924v-4.994
		c0-1.493-0.066-2.42-0.197-2.781c-0.281-0.754-0.898-1.132-1.853-1.132c-0.79,0-1.433,0.353-1.926,1.058
		c-0.165,0.23-0.247,0.738-0.247,1.526v6.275c0,0.442,0.008,0.697,0.024,0.762c0.017,0.164,0.083,0.259,0.198,0.284
		c0.116,0.025,0.47,0.045,1.062,0.062c0.198,0,0.296,0.064,0.296,0.196c0,0.114-0.083,0.173-0.247,0.173h-0.247h-1.951
		c-1.367-0.018-2.124-0.018-2.271,0H69.92c-0.182,0-0.272-0.05-0.272-0.149c0-0.114,0.09-0.172,0.272-0.172h0.371l0.371-0.024
		c0.378,0.017,0.576-0.099,0.592-0.346V81.641c0-2.636-0.041-4.06-0.124-4.275c-0.098-0.164-0.501-0.254-1.21-0.271
		c-0.395,0-0.592-0.062-0.592-0.183c0-0.105,0.041-0.168,0.124-0.186c0.082-0.018,0.362-0.033,0.839-0.051
		c0.839-0.016,1.646-0.214,2.42-0.594c0.065-0.031,0.181-0.072,0.346-0.123c0.115,0.198,0.173,0.831,0.173,1.9v6.044
		c0.725-1.054,1.712-1.579,2.963-1.579c1.316,0,2.256,0.361,2.815,1.086c0.279,0.361,0.452,0.871,0.519,1.529
		c0.033,0.229,0.049,0.78,0.049,1.652v6.217c0.017,0.164,0.444,0.246,1.284,0.246C81.008,93.088,81.082,93.145,81.082,93.227"/>
	<path fill="#120C15" d="M86.637,93.227c0,0.148-0.139,0.223-0.419,0.223c0.016,0-0.182-0.018-0.593-0.049
		c-0.494-0.034-0.905-0.051-1.235-0.051h-2.568c-0.082,0.066-0.182,0.1-0.296,0.1c-0.182,0-0.272-0.061-0.272-0.183
		c0-0.175,0.165-0.263,0.494-0.263c0.627-0.016,0.967-0.061,1.025-0.135c0.057-0.074,0.086-0.416,0.086-1.023v-7.474
		c-0.016-0.411-0.037-0.655-0.062-0.728c-0.025-0.075-0.127-0.111-0.309-0.111h-0.716h-0.246c-0.182,0-0.272-0.058-0.272-0.174
		c0-0.101,0.139-0.158,0.415-0.172c1.088-0.047,2.021-0.304,2.802-0.768l0.243-0.146c0.13,0.246,0.195,0.697,0.195,1.354v0.246
		v0.961v6.718c0,0.656,0.013,1.041,0.037,1.157c0.025,0.114,0.111,0.188,0.259,0.222c0.248,0.065,0.609,0.098,1.087,0.098
		C86.521,93.029,86.637,93.096,86.637,93.227 M84.786,77.859c0,0.74-0.371,1.11-1.112,1.11c-0.312,0-0.576-0.103-0.79-0.31
		c-0.214-0.205-0.321-0.455-0.321-0.751c0-0.773,0.371-1.16,1.11-1.16C84.415,76.749,84.786,77.119,84.786,77.859"/>
	<path fill="#120C15" d="M96.835,92.265c0,0.28-0.292,0.571-0.873,0.876c-0.58,0.305-1.141,0.457-1.682,0.457
		c-1.131,0-1.72-0.584-1.77-1.752c-0.623,1.217-1.588,1.825-2.899,1.825c-0.705,0-1.286-0.21-1.743-0.628
		c-0.46-0.421-0.688-0.959-0.688-1.616c0-1.349,0.807-2.417,2.421-3.208c0.555-0.262,1.518-0.525,2.887-0.788v-0.616
		c0-1.447-0.075-2.401-0.223-2.863c-0.262-0.838-0.855-1.256-1.777-1.256c-0.577,0-1.058,0.154-1.444,0.467
		c-0.388,0.313-0.582,0.707-0.582,1.186c0,0.131,0.101,0.195,0.302,0.195c0.202,0,0.382,0.1,0.543,0.297s0.242,0.42,0.242,0.666
		c0,0.724-0.359,1.086-1.075,1.086c-0.375,0-0.684-0.128-0.929-0.383s-0.366-0.58-0.366-0.975c0-0.773,0.305-1.438,0.914-1.998
		c0.674-0.607,1.613-0.912,2.814-0.912c1.811,0,2.922,0.494,3.334,1.479c0.148,0.38,0.223,1.126,0.223,2.245v4.613
		c0,0.756,0.007,1.199,0.023,1.332c0.083,0.592,0.322,0.887,0.716,0.887c0.461,0,0.839-0.164,1.137-0.493
		c0.164-0.181,0.287-0.271,0.371-0.271C96.794,92.117,96.835,92.166,96.835,92.265 M92.489,89.65V87.85
		c-1.217,0.279-2.089,0.646-2.616,1.098c-0.527,0.452-0.791,1.057-0.791,1.812c0,0.526,0.149,0.959,0.45,1.295
		c0.3,0.338,0.678,0.506,1.132,0.506c0.697,0,1.257-0.395,1.679-1.184C92.441,91.197,92.489,90.621,92.489,89.65"/>
	<path fill="#120C15" d="M116.812,93.214c0,0.141-0.125,0.211-0.371,0.211c-0.166,0-0.313-0.009-0.444-0.024l-3.136-0.1l-3.136,0.1
		c-0.116,0.016-0.239,0.024-0.371,0.024c-0.33,0-0.494-0.087-0.494-0.259c0-0.189,0.221-0.285,0.667-0.285
		c1.449-0.016,2.172-0.16,2.172-0.435c0-0.017-0.016-0.081-0.05-0.193l-0.202-0.651l-0.126-0.345
		c-0.148-0.511-0.51-1.638-1.085-3.382h-5.279c-0.986,2.631-1.479,4.144-1.479,4.537c0,0.232,0.1,0.371,0.296,0.421
		c0.05,0.017,0.461,0.048,1.235,0.099c0.478,0.016,0.716,0.098,0.716,0.246c0,0.165-0.214,0.247-0.642,0.247
		c-0.757,0-1.639-0.034-2.643-0.1c-0.248-0.017-0.502-0.024-0.766-0.024c-0.262,0-0.517,0.027-0.765,0.082
		c-0.132,0.027-0.239,0.042-0.321,0.042c-0.23,0-0.346-0.075-0.346-0.223c0-0.149,0.259-0.231,0.778-0.247
		c0.519-0.017,0.892-0.096,1.124-0.236c0.23-0.141,0.412-0.408,0.543-0.805c2.117-6.071,3.841-10.947,5.171-14.627
		c0.038-0.193,0.114-0.412,0.23-0.655l0.105-0.45c0.048-0.182,0.114-0.271,0.198-0.271c0.048,0,0.089,0.048,0.123,0.147
		c0.214,0.641,0.699,1.982,1.456,4.02c0.593,1.596,2.065,5.601,4.421,12.014c0.13,0.373,0.3,0.609,0.505,0.711
		s0.63,0.16,1.273,0.178C116.598,92.996,116.812,93.074,116.812,93.214 M110.122,87.307c-0.268-0.74-0.712-1.965-1.332-3.678
		l-1.187-3.418c-0.694,1.82-1.529,4.185-2.503,7.096H110.122z"/>
	<path fill="#120C15" d="M127.774,93.24c0,0.123-0.123,0.185-0.371,0.185h-0.296h-1.21h-2.864h-0.173
		c-0.215,0-0.322-0.059-0.322-0.173c0-0.082,0.045-0.132,0.136-0.148c0.091-0.016,0.407-0.031,0.951-0.048
		c0.313-0.017,0.494-0.062,0.543-0.136s0.075-0.34,0.075-0.801v-4.724c0-1.788-0.067-2.854-0.198-3.199
		c-0.281-0.738-0.839-1.107-1.679-1.107c-0.825,0-1.516,0.36-2.076,1.083c-0.164,0.213-0.246,0.508-0.246,0.886v7.677
		c0,0.198,0.176,0.305,0.527,0.321l0.753,0.023c0.167,0,0.25,0.059,0.25,0.173s-0.098,0.173-0.296,0.173h-0.396h-1.729h-1.173
		h-1.049h-0.148c-0.248,0-0.371-0.05-0.371-0.151c0-0.101,0.148-0.165,0.444-0.194h0.618c0.246,0,0.396-0.058,0.444-0.173
		l0.075-0.367v-5.365c0-1.869-0.018-2.902-0.05-3.1c-0.034-0.195-0.239-0.295-0.617-0.295h-0.593h-0.123
		c-0.33,0-0.494-0.061-0.494-0.184c0-0.156,0.173-0.236,0.519-0.236c0.494-0.016,1.028-0.106,1.604-0.271
		c0.577-0.164,0.98-0.353,1.21-0.568c0.148-0.13,0.264-0.196,0.346-0.196c0.116,0,0.173,0.156,0.173,0.469v1.184
		c0.855-1.102,1.958-1.652,3.309-1.652c1.185,0,2.042,0.436,2.568,1.307c0.296,0.494,0.445,1.432,0.445,2.812v5.625
		c0,0.525,0.025,0.812,0.073,0.863c0.1,0.098,0.338,0.147,0.716,0.147h0.271h0.174C127.692,93.079,127.774,93.133,127.774,93.24"/>
	<path fill="#120C15" d="M135.454,91.919c0,0.149-0.207,0.411-0.618,0.79c-0.708,0.641-1.547,0.962-2.519,0.962
		c-0.905,0-1.589-0.229-2.048-0.688c-0.264-0.262-0.396-1.034-0.396-2.314v-7.333c-0.016-0.164-0.107-0.255-0.272-0.271h-0.938
		c-0.362,0-0.543-0.058-0.543-0.174c0-0.113,0.089-0.18,0.27-0.195c1.276-0.117,2.272-0.75,2.993-1.897
		c0.099-0.149,0.22-0.226,0.368-0.226c0.114,0,0.171,0.059,0.171,0.173v0.099v0.42c0,0.689,0.032,1.134,0.1,1.332
		c0.148,0.033,0.395,0.049,0.74,0.049c0.905,0,1.507-0.041,1.803-0.124c0.066-0.017,0.123-0.023,0.173-0.023
		c0.132,0,0.198,0.07,0.198,0.212c0,0.238-0.667,0.355-2.001,0.355h-1.013v4.562c0,2.303,0.058,3.746,0.173,4.33
		c0.116,0.583,0.494,0.876,1.137,0.876c0.542,0,1.151-0.305,1.827-0.914c0.065-0.082,0.139-0.123,0.223-0.123
		C135.396,91.796,135.454,91.837,135.454,91.919"/>
	<path fill="#120C15" d="M141.059,93.227c0,0.148-0.14,0.223-0.419,0.223c0.016,0-0.182-0.018-0.594-0.049
		c-0.493-0.034-0.905-0.051-1.234-0.051h-2.568c-0.082,0.066-0.182,0.1-0.296,0.1c-0.182,0-0.272-0.061-0.272-0.183
		c0-0.175,0.166-0.263,0.494-0.263c0.625-0.016,0.967-0.061,1.025-0.135c0.057-0.074,0.086-0.416,0.086-1.023v-7.474
		c-0.016-0.411-0.036-0.655-0.062-0.728c-0.024-0.075-0.127-0.111-0.309-0.111h-0.717h-0.246c-0.182,0-0.272-0.058-0.272-0.174
		c0-0.101,0.138-0.158,0.415-0.172c1.088-0.047,2.021-0.304,2.802-0.768l0.243-0.146c0.131,0.246,0.195,0.697,0.195,1.354v0.246
		v0.961v6.718c0,0.656,0.012,1.041,0.036,1.157c0.025,0.114,0.111,0.188,0.26,0.222c0.247,0.065,0.609,0.098,1.087,0.098
		C140.942,93.029,141.059,93.096,141.059,93.227 M139.207,77.859c0,0.74-0.371,1.11-1.112,1.11c-0.312,0-0.575-0.103-0.789-0.31
		c-0.214-0.205-0.321-0.455-0.321-0.751c0-0.773,0.371-1.16,1.11-1.16C138.836,76.749,139.207,77.119,139.207,77.859"/>
	<path fill="#120C15" d="M152.713,87.899c0,1.644-0.466,3.018-1.399,4.119c-0.933,1.102-2.093,1.652-3.48,1.652
		c-1.091,0-1.934-0.394-2.528-1.184v5.747c0,0.361,0.014,0.575,0.038,0.641c0.025,0.066,0.104,0.123,0.237,0.174
		c0.251,0.049,0.732,0.074,1.45,0.074c0.199,0,0.301,0.073,0.301,0.221c0,0.116-0.107,0.174-0.321,0.174h-0.47h-0.567h-0.643h-0.814
		h-1.037h-1.309c-0.479,0-0.716-0.062-0.716-0.184c0-0.158,0.098-0.236,0.296-0.236h0.741c0.478,0,0.732-0.106,0.765-0.32
		c0.016-0.1,0.024-0.855,0.024-2.27V84.223c0-0.46-0.223-0.674-0.666-0.641h-1.037c-0.148,0-0.223-0.061-0.223-0.184
		c0-0.157,0.182-0.236,0.543-0.236c0.905,0.018,1.729-0.196,2.47-0.642c0.214-0.13,0.378-0.196,0.494-0.196
		c0.132,0,0.218,0.062,0.259,0.185s0.07,0.498,0.087,1.122c0.609-0.871,1.48-1.307,2.617-1.307c1.432,0,2.604,0.521,3.519,1.566
		C152.256,84.935,152.713,86.271,152.713,87.899 M150.516,87.911c0-1.286-0.198-2.382-0.595-3.288
		c-0.53-1.253-1.348-1.88-2.457-1.88c-0.578,0-1.075,0.202-1.488,0.606c-0.414,0.402-0.637,0.894-0.671,1.471
		c-0.032,0.725-0.024,2.25,0.025,4.574c0.016,1.171,0.042,1.875,0.074,2.114c0.034,0.239,0.141,0.481,0.322,0.729
		c0.48,0.676,1.101,1.014,1.862,1.014c0.859,0,1.504-0.363,1.935-1.088C150.185,91.059,150.516,89.641,150.516,87.911"/>
	<path fill="#120C15" d="M164.664,88.047c0,1.594-0.484,2.932-1.456,4.008c-0.971,1.078-2.181,1.616-3.63,1.616
		c-1.498,0-2.749-0.538-3.754-1.616c-1.004-1.076-1.506-2.414-1.506-4.008c0-1.645,0.489-3.01,1.469-4.096
		c0.98-1.085,2.202-1.627,3.667-1.627c1.482,0,2.72,0.547,3.718,1.641C164.166,85.058,164.664,86.418,164.664,88.047
		 M162.417,88.022c0-1.81-0.279-3.216-0.839-4.219c-0.412-0.739-1.104-1.108-2.074-1.108c-0.922,0-1.643,0.471-2.161,1.418
		c-0.519,0.944-0.777,2.257-0.777,3.934c0,1.662,0.275,2.957,0.827,3.885c0.551,0.93,1.321,1.394,2.309,1.394
		c0.758,0,1.317-0.287,1.679-0.862C162.071,91.377,162.417,89.897,162.417,88.022"/>
	<path fill="#120C15" d="M171.085,93.202c0,0.147-0.107,0.223-0.321,0.223h-0.296c-0.033,0-0.47-0.018-1.31-0.05h-0.765
		c-0.132,0-0.791,0.012-1.976,0.037c-0.099,0.008-0.198,0.013-0.296,0.013c-0.248,0.017-0.371-0.053-0.371-0.208
		c0-0.108,0.091-0.162,0.271-0.162h0.643c0.46,0,0.691-0.099,0.691-0.297c0.017-0.098,0.025-0.739,0.025-1.923V78.278
		c0-0.542-0.018-0.838-0.05-0.888c-0.05-0.132-0.182-0.197-0.396-0.197h-0.198h-0.691c-0.229,0-0.346-0.069-0.346-0.21
		c0-0.124,0.207-0.194,0.618-0.21c0.79-0.049,1.522-0.229,2.197-0.543l0.519-0.246l0.198-0.073c0.132,0.476,0.188,1.2,0.173,2.169
		v1.752v12.087c0,0.493,0.007,0.786,0.024,0.876c0.017,0.091,0.073,0.152,0.173,0.186c0.017,0.017,0.321,0.033,0.913,0.049
		C170.896,93.029,171.085,93.088,171.085,93.202"/>
	<path fill="#120C15" d="M177.381,93.227c0,0.148-0.14,0.223-0.419,0.223c0.016,0-0.182-0.018-0.594-0.049
		c-0.493-0.034-0.905-0.051-1.234-0.051h-2.568c-0.082,0.066-0.182,0.1-0.296,0.1c-0.182,0-0.271-0.061-0.271-0.183
		c0-0.175,0.164-0.263,0.493-0.263c0.626-0.016,0.967-0.061,1.024-0.135c0.057-0.074,0.086-0.416,0.086-1.023v-7.474
		c-0.016-0.411-0.036-0.655-0.062-0.728c-0.024-0.075-0.127-0.111-0.309-0.111h-0.715h-0.248c-0.182,0-0.271-0.058-0.271-0.174
		c0-0.101,0.138-0.158,0.413-0.172c1.088-0.047,2.022-0.304,2.802-0.768l0.245-0.146c0.129,0.246,0.193,0.697,0.193,1.354v0.246
		v0.961v6.718c0,0.656,0.013,1.041,0.038,1.157c0.024,0.114,0.109,0.188,0.259,0.222c0.246,0.065,0.608,0.098,1.086,0.098
		C177.267,93.029,177.381,93.096,177.381,93.227 M175.529,77.859c0,0.74-0.371,1.11-1.11,1.11c-0.313,0-0.577-0.103-0.791-0.31
		c-0.214-0.205-0.321-0.455-0.321-0.751c0-0.773,0.371-1.16,1.112-1.16C175.158,76.749,175.529,77.119,175.529,77.859"/>
	<path fill="#120C15" d="M185.998,90.234c0,0.957-0.347,1.768-1.041,2.435c-0.694,0.668-1.525,1.002-2.489,1.002
		c-0.557,0-1.234-0.198-2.036-0.592c-0.212-0.116-0.399-0.173-0.563-0.173c-0.229,0-0.4,0.156-0.515,0.469
		c-0.065,0.197-0.156,0.296-0.27,0.296c-0.115,0-0.173-0.065-0.173-0.198v-0.295v-1.455v-0.592v-0.691v-0.271
		c0-0.18,0.059-0.271,0.173-0.271c0.132,0,0.207,0.091,0.223,0.272c0.1,0.764,0.312,1.359,0.642,1.79
		c0.659,0.861,1.54,1.292,2.643,1.292c0.594,0,1.069-0.173,1.433-0.52c0.362-0.346,0.544-0.808,0.544-1.385
		c0-0.643-0.207-1.152-0.618-1.532c-0.23-0.216-0.441-0.366-0.63-0.457c-0.189-0.091-0.744-0.311-1.666-0.656
		c-1.828-0.691-2.742-1.729-2.742-3.114c0-0.923,0.311-1.697,0.932-2.324c0.62-0.626,1.388-0.939,2.303-0.939
		c0.327,0,0.816,0.098,1.47,0.296c0.164,0.05,0.311,0.075,0.44,0.075c0.343,0,0.556-0.166,0.638-0.494
		c0.05-0.164,0.123-0.248,0.221-0.248c0.114,0,0.172,0.066,0.172,0.198v0.147v1.036c-0.018,0.396,0.023,1.028,0.123,1.899v0.051
		c0,0.131-0.066,0.195-0.198,0.195c-0.098,0-0.223-0.247-0.37-0.745c-0.182-0.598-0.498-1.079-0.951-1.444
		c-0.452-0.365-0.976-0.548-1.567-0.548c-0.56,0-1.021,0.173-1.383,0.521c-0.361,0.346-0.543,0.781-0.543,1.309
		c0,0.825,0.551,1.451,1.653,1.88c1.713,0.675,2.8,1.236,3.26,1.682C185.702,88.709,185.998,89.411,185.998,90.234"/>
</g>
</svg>
