<?xml version="1.0" encoding="utf-8"?>
<!-- Generator: Adobe Illustrator 16.0.4, SVG Export Plug-In . SVG Version: 6.00 Build 0)  -->
<!DOCTYPE svg PUBLIC "-//W3C//DTD SVG 1.1//EN" "http://www.w3.org/Graphics/SVG/1.1/DTD/svg11.dtd">
<svg version="1.1" xmlns="http://www.w3.org/2000/svg" xmlns:xlink="http://www.w3.org/1999/xlink" x="0px" y="0px" width="775px"
	 height="139px" viewBox="0.445 504.775 775 139" enable-background="new 0.445 504.775 775 139" xml:space="preserve">
<g id="UCA">
	<g>
		<path stroke="#000000" stroke-miterlimit="10" d="M272.537,600.712c0,5.887-2.783,7.068-7.273,7.068
			c-4.49,0-7.274-1.182-7.274-7.068v-17.49h-1.793v17.523c0,7.766,4.845,8.76,9.067,8.76c4.222,0,9.067-0.994,9.067-8.76v-17.523
			h-1.793L272.537,600.712L272.537,600.712z"/>
		<polygon stroke="#000000" stroke-miterlimit="10" points="295.47,605.361 280.721,583.222 279.473,583.222 279.473,609.337 
			281.335,609.337 281.269,587.198 296.02,609.337 297.268,609.337 297.268,583.222 295.406,583.222 		"/>
		<rect x="303.323" y="583.222" stroke="#000000" stroke-miterlimit="10" width="1.826" height="26.116"/>
		<polygon stroke="#000000" stroke-miterlimit="10" points="319.392,606.132 311.505,583.222 309.531,583.222 318.756,609.505 
			320.029,609.505 329.255,583.222 327.281,583.222 		"/>
		<polygon stroke="#000000" stroke-miterlimit="10" points="332.891,609.337 347.708,609.337 347.708,607.611 334.718,607.611 
			334.718,596.654 346.456,596.654 346.456,594.961 334.718,594.961 334.718,584.947 347.708,584.947 347.708,583.222 
			332.891,583.222 		"/>
		<path stroke="#000000" stroke-miterlimit="10" d="M368.955,590.427c0-4.325-1.376-7.205-8.086-7.205h-8.356v26.116h1.829v-11.705
			h6.528c0.355,0,0.696,0,1.034-0.016l6.116,11.721h2.167l-6.407-11.928C368.312,596.568,368.955,593.565,368.955,590.427z
			 M367.127,590.427c0,3.471-0.941,5.481-5.75,5.481h-7.036v-10.96h7.036C366.185,584.947,367.127,586.956,367.127,590.427z"/>
		<path stroke="#000000" stroke-miterlimit="10" d="M381.479,594.962c-5.456-0.61-6.84-1.175-6.84-4.941
			c0-2.249,0.708-5.242,6.833-5.242c2.461,0,4.056,0.269,6.095,1.024l0.502,0.188v-1.837l-0.234-0.093
			c-1.693-0.679-3.774-1.008-6.363-1.008c-7.129,0-8.626,3.771-8.626,6.935c0,5.16,2.502,5.981,8.211,6.627
			c5.771,0.668,6.64,1.367,6.64,5.348c0,3.916-2.513,5.818-7.68,5.818c-3.111,0-5.118-0.588-6.67-1.16l-0.501-0.186v1.803
			l0.235,0.094c1.665,0.658,4.698,1.174,6.902,1.174c3.563,0,9.541-0.979,9.541-7.541
			C389.523,596.13,386.615,595.527,381.479,594.962z"/>
		<rect x="394.869" y="583.222" stroke="#000000" stroke-miterlimit="10" width="1.827" height="26.116"/>
		<polygon stroke="#000000" stroke-miterlimit="10" points="401.398,584.913 408.773,584.913 408.773,609.337 410.6,609.337 
			410.6,584.913 417.976,584.913 417.976,583.222 401.398,583.222 		"/>
		<polygon stroke="#000000" stroke-miterlimit="10" points="434.804,577.518 431.808,577.518 427.516,581.372 429.215,581.372 		"/>
		<polygon stroke="#000000" stroke-miterlimit="10" points="436.75,584.947 436.75,583.222 421.933,583.222 421.933,609.337 
			436.75,609.337 436.75,607.611 423.759,607.611 423.759,596.654 435.5,596.654 435.5,594.961 423.759,594.961 423.759,584.947 		
			"/>
	</g>
	<g>
		<path fill="#007FA2" d="M456.51,582.674c3.069,0,5.648,0.561,7.43,1.327v4.988c-3.281-1.326-5.303-1.675-7.43-1.675
			c-4.22,0-5.688,4.01-5.688,8.996c0,4.988,1.468,9,5.688,9c2.127,0,4.148-0.35,7.43-1.676v4.988
			c-1.781,0.768-4.36,1.324-7.43,1.324c-8.057,0-10.639-6.207-10.639-13.637C445.871,588.883,448.453,582.674,456.51,582.674z"/>
		<path fill="#007FA2" d="M477.79,609.949c-8.929,0-10.151-6.803-10.151-13.637c0-6.834,1.223-13.637,10.151-13.637
			c8.963,0,10.15,6.802,10.15,13.637C487.94,603.146,486.753,609.949,477.79,609.949z M480.552,581.358l-2.573-1.646l-3.148,1.646
			h-3.347l4.646-3.36h3.696l4.072,3.36H480.552z M477.79,587.314c-4.535,0-5.198,4.219-5.198,8.996c0,4.779,0.662,9,5.198,9
			c4.534,0,5.196-4.221,5.196-9C482.986,591.533,482.322,587.314,477.79,587.314z"/>
		<path fill="#007FA2" d="M501.4,587.871v21.519h-4.847v-21.519h-6.559v-4.636h17.961v4.636H501.4z"/>
		<path fill="#007FA2" d="M526.689,598.195H516.3v6.561h11.474v4.635h-16.288v-26.155h16.288v4.636H516.3v5.685h10.39V598.195z"/>
		<path fill="#007FA2" d="M540.148,609.39v-26.155h7.743c8.753,0,11.231,5.648,11.231,13.075c0,7.43-2.478,13.08-11.231,13.08
			H540.148L540.148,609.39z M544.959,604.755h3.038c4.707,0,6.137-3.527,6.137-8.445c0-4.915-1.43-8.439-6.137-8.439h-3.038V604.755
			z"/>
		<path fill="#007FA2" d="M562.23,591.953c0,0,1.709-3.489,1.009-8.719h4.587c-0.141,5.402-3.661,8.719-3.661,8.719H562.23z"/>
		<path fill="#007FA2" d="M565.832,609.39l9.312-26.716h3.35l9.28,26.716h-5.199l-2.197-6.625h-7.22l-2.094,6.625H565.832z
			 M576.82,591.359l-2.197,6.833h4.323L576.82,591.359z"/>
		<path fill="#007FA2" d="M589.728,609.39v-3.104l12.276-18.416h-11.646v-4.636h18.238v3.102l-12.275,18.418h12.731v4.637h-19.325
			V609.39z"/>
		<path fill="#007FA2" d="M626.913,600.496v-17.261h4.814v17.683c0,7.775-6.385,9.031-9.661,9.031c-3.28,0-9.662-1.256-9.662-9.031
			v-17.683h4.813v17.261c0,4.398,3.174,4.779,4.849,4.779C623.738,605.275,626.913,604.894,626.913,600.496z"/>
		<path fill="#007FA2" d="M641.114,609.39h-4.812v-26.155h8.685c6.903,0,9.067,3.033,9.067,7.88c0,3.312-0.941,5.718-3.836,7.009
			c0.521,1.117,1.185,2.268,1.812,3.42c1.256,2.371,3.034,5.789,4.116,7.846h-5.825l-5.06-10.322h-4.148V609.39z M641.114,594.428
			h4.324c3.07,0,3.525-1.464,3.525-3.312c0-1.813-0.455-3.243-3.525-3.243h-4.324V594.428z"/>
	</g>
	
		<text transform="matrix(1 0 0 1 365.824 562.8911)" fill="#4C4C4C" font-family="'MyriadPro-Regular'" font-size="39.8595" letter-spacing="-2">Membre de</text>
</g>
<g id="UNS">
	<path fill="#17BCE2" d="M98.428,599.258c-4.104,8.68-19.333,21.479-32.841,21.479c-9.407,0-16.161-3.856-20.75-8.924
		c-2.775-3.098-5.22-7.766-6.51-15.617c0.007,10.998,0.056,22.856,0.405,32.646c5.87,2.897,12.947,4.424,21.066,4.424
		c15.088,0,29.885-8.592,38.116-23.33L98.428,599.258L98.428,599.258z"/>
	<path fill="#8DD0BC" d="M115.747,545.306c0.256-9.723,0.637-19.484,1.229-29.635c-3.141,0.717-6.275,1.2-9.896,1.2
		c-3.613,0-6.752-0.483-10.125-1.2c0.02,0.656,0.049,1.338,0.074,2.02c10.369,5.121,16.945,14.567,18.719,27.617"/>
	<path fill="#17BCE2" d="M37.612,546.681c4.103-8.675,19.054-20.886,32.56-20.886c9.405,0,16.164,3.858,20.746,8.918
		c2.78,3.11,5.224,7.77,6.513,15.632c-0.008-11-0.051-22.862-0.4-32.653c-5.875-2.904-12.953-4.427-21.073-4.427
		c-15.082,0-29.995,8.943-38.225,23.683L37.612,546.681L37.612,546.681z"/>
	<path fill="#FFE830" d="M20.011,601.228c-0.256,9.725-0.634,19.48-1.224,29.641c3.138-0.721,6.272-1.205,9.894-1.205
		c3.612,0,6.754,0.484,10.132,1.205c-0.026-0.666-0.054-1.336-0.078-2.027C28.363,623.718,21.79,614.275,20.011,601.228"/>
	<path fill="#8DD0BC" d="M37.362,582.664c0-15.771,0.486-46.263,0.486-46.263c0-6.662,0.004-13.556,0.466-20.448
		c-2.89,0.555-5.745,0.916-8.428,0.916c-0.112,0-0.234-0.01-0.351-0.01c-0.203,0.006-0.413,0.02-0.617,0.02
		c-3.053,0-6.109-0.458-9.165-1.15c0.058,2.978,0.104,5.954,0.16,8.916c0.408,10.76,0.567,21.854,0.567,32.968
		c0,15.18-0.098,29.36-0.468,43.614c1.777,13.051,8.348,22.49,18.724,27.62c-0.354-9.794-0.402-21.651-0.407-32.649
		c-0.609-3.734-0.966-8.181-0.966-13.533"/>
	<path fill="#FFE830" d="M115.747,545.306c-1.773-13.048-8.35-22.494-18.719-27.613c0.352,9.793,0.393,21.65,0.402,32.654
		c0.609,3.73,0.969,8.172,0.969,13.52c0,15.773-0.486,46.266-0.486,46.266c0,6.663-0.004,13.554-0.467,20.456
		c2.885-0.559,5.742-0.928,8.43-0.928c0.109,0,0.23,0.011,0.346,0.015c0.209-0.005,0.414-0.022,0.617-0.022
		c3.057,0,6.113,0.467,9.17,1.152c-0.055-2.982-0.105-5.96-0.158-8.924c-0.41-10.762-0.562-21.852-0.562-32.957
		c0-15.19,0.09-29.362,0.459-43.622"/>
	<path fill="#120C15" d="M81.438,557.792c0,0.15-0.152,0.225-0.454,0.225h-5.552c-0.263,0-0.394-0.07-0.394-0.212
		c0-0.1,0.058-0.16,0.167-0.18c0.11-0.02,0.5-0.04,1.16-0.06c0.384-0.02,0.605-0.075,0.666-0.166c0.061-0.09,0.09-0.416,0.09-0.978
		v-5.773c0-2.186-0.08-3.49-0.239-3.91c-0.345-0.902-1.026-1.354-2.054-1.354c-1.006,0-1.852,0.44-2.535,1.323
		c-0.201,0.26-0.302,0.62-0.302,1.083v9.384c0,0.24,0.214,0.372,0.646,0.39l0.92,0.03c0.204,0,0.307,0.072,0.307,0.21
		c0,0.142-0.12,0.212-0.362,0.212h-5.493c-0.304,0-0.454-0.062-0.454-0.187c0-0.12,0.18-0.2,0.543-0.237h0.754
		c0.302,0,0.481-0.07,0.543-0.21l0.09-0.45v-6.554c0-2.285-0.021-3.548-0.06-3.788c-0.04-0.24-0.292-0.362-0.756-0.362h-0.874
		c-0.403,0-0.604-0.074-0.604-0.224c0-0.192,0.21-0.287,0.634-0.287c0.604-0.022,1.257-0.133,1.962-0.334
		c0.703-0.2,1.196-0.432,1.479-0.692c0.182-0.16,0.321-0.24,0.423-0.24c0.142,0,0.212,0.19,0.212,0.57v1.448
		c1.045-1.346,2.394-2.02,4.043-2.02c1.45,0,2.495,0.53,3.14,1.598c0.36,0.604,0.542,1.75,0.542,3.437v6.874
		c0,0.645,0.03,0.996,0.09,1.058c0.12,0.12,0.412,0.18,0.875,0.18h0.542c0.204-0.002,0.306,0.065,0.306,0.196 M89.615,557.776
		c0,0.182-0.172,0.272-0.513,0.272c0.02,0-0.223-0.02-0.726-0.062c-0.604-0.04-1.106-0.06-1.51-0.06H83.73
		c-0.101,0.08-0.222,0.12-0.363,0.12c-0.222,0-0.333-0.073-0.333-0.224c0-0.212,0.2-0.318,0.604-0.318
		c0.766-0.02,1.183-0.075,1.253-0.166c0.069-0.091,0.104-0.507,0.104-1.25v-9.137c-0.02-0.503-0.045-0.8-0.075-0.89
		c-0.029-0.09-0.156-0.135-0.378-0.135h-1.175c-0.22,0-0.332-0.07-0.332-0.21c0-0.125,0.168-0.194,0.506-0.213
		c1.33-0.058,2.473-0.37,3.426-0.94l0.297-0.175c0.157,0.302,0.237,0.853,0.237,1.654v9.685c0,0.804,0.016,1.273,0.045,1.413
		c0.03,0.14,0.137,0.23,0.316,0.272c0.302,0.08,0.744,0.12,1.328,0.12C89.474,557.534,89.615,557.612,89.615,557.776
		 M87.351,538.992c0,0.904-0.453,1.356-1.358,1.356c-0.382,0-0.705-0.125-0.965-0.377c-0.26-0.25-0.392-0.557-0.392-0.92
		c0-0.943,0.452-1.415,1.357-1.415S87.352,538.088,87.351,538.992 M103.165,544.993c0,0.14-0.191,0.21-0.572,0.21h-0.725
		c-0.363,0-0.645,0.222-0.846,0.665c-0.119,0.382-0.24,0.766-0.361,1.148l-2.535,7.797c-0.143,0.402-0.344,1.017-0.604,1.843
		c-0.322,1.107-0.584,1.66-0.785,1.66c-0.143,0-0.283-0.19-0.424-0.57c-0.102-0.24-0.201-0.513-0.303-0.814
		c-1.631-4.4-2.455-6.592-2.475-6.573c-1.047-3.01-1.682-4.645-1.901-4.91c-0.181-0.182-0.464-0.264-0.846-0.243h-0.693
		c-0.202,0-0.304-0.066-0.304-0.196s0.141-0.195,0.423-0.195h5.765c0.203,0,0.303,0.07,0.303,0.21c0,0.163-0.311,0.244-0.934,0.244
		c-0.625,0-0.938,0.08-0.938,0.24c0,0.222,0.086,0.556,0.254,1c0.326,0.803,0.953,2.53,1.887,5.18c0.4,1.188,0.73,2.093,0.99,2.717
		c0.564-1.796,1.07-3.34,1.514-4.632c0.889-2.622,1.332-4.055,1.332-4.295c0-0.182-0.15-0.271-0.453-0.271H99.27
		c-0.262,0-0.393-0.07-0.393-0.21c0-0.12,0.119-0.183,0.363-0.183h3.018c0.607-0.022,0.908,0.04,0.908,0.18 M115.178,554.67
		c0,0.202-0.156,0.558-0.469,1.07c-0.312,0.513-0.629,0.93-0.949,1.25c-0.867,0.886-2.023,1.328-3.473,1.328
		c-1.811,0-3.326-0.652-4.541-1.96c-1.219-1.306-1.828-2.924-1.828-4.853c0-2.01,0.58-3.688,1.736-5.035
		c1.156-1.348,2.6-2.02,4.33-2.02c1.428,0,2.627,0.417,3.592,1.25c0.965,0.834,1.48,1.906,1.541,3.21
		c-0.645,0.103-1.5,0.142-2.564,0.123h-2.115c-0.141,0-1.348,0.03-3.621,0.088c-0.1,0.662-0.15,1.294-0.15,1.894
		c0,2.023,0.387,3.58,1.16,4.672c0.775,1.092,1.867,1.637,3.277,1.637c0.803,0,1.449-0.182,1.93-0.544
		c0.484-0.36,1.006-1.056,1.57-2.08c0.08-0.16,0.189-0.24,0.332-0.24C115.098,554.458,115.178,554.53,115.178,554.67
		 M112.553,548.52c-0.08-2.412-0.947-3.618-2.598-3.618c-1.629,0-2.646,1.206-3.049,3.618h5.645H112.553z M126.887,546.561
		c0,0.463-0.141,0.844-0.422,1.146c-0.283,0.3-0.645,0.45-1.088,0.45c-0.361,0-0.662-0.105-0.902-0.316
		c-0.242-0.211-0.363-0.478-0.363-0.8c0-0.28,0.09-0.521,0.271-0.722c0.182-0.2,0.27-0.342,0.27-0.422
		c0-0.303-0.219-0.453-0.662-0.453c-0.564,0-1.047,0.35-1.451,1.05c-0.461,0.82-0.691,2.34-0.691,4.56v5.94
		c0,0.24,0.084,0.392,0.254,0.45c0.17,0.062,0.689,0.1,1.555,0.12c0.219,0.04,0.332,0.12,0.332,0.24
		c0,0.142-0.133,0.212-0.393,0.212h-5.857c-0.322,0-0.48-0.06-0.48-0.18c0-0.122,0.129-0.183,0.389-0.183h0.424
		c0.684,0,1.086-0.08,1.207-0.243c0.041-0.08,0.061-0.454,0.061-1.12v-8.332c0-1.11-0.166-1.752-0.498-1.925
		c-0.332-0.17-0.859-0.267-1.582-0.287c-0.242,0-0.363-0.07-0.363-0.21s0.1-0.212,0.299-0.212h0.213
		c0.301,0,0.605,0.015,0.904,0.044c0.303,0.03,0.434,0.047,0.393,0.047c0.744,0,1.57-0.21,2.477-0.633l0.393-0.182l0.24-0.09
		c0.08,0.482,0.121,0.965,0.121,1.446v0.604c0.643-1.368,1.549-2.05,2.717-2.05c0.645,0,1.178,0.195,1.6,0.588
		c0.422,0.39,0.633,0.88,0.633,1.463 M137.813,554.118c0,1.168-0.426,2.16-1.273,2.977c-0.85,0.815-1.863,1.225-3.043,1.225
		c-0.68,0-1.51-0.242-2.486-0.725c-0.26-0.14-0.49-0.21-0.689-0.21c-0.281,0-0.49,0.19-0.629,0.572c-0.08,0.24-0.189,0.36-0.33,0.36
		c-0.139,0-0.209-0.08-0.209-0.24v-4.04c0-0.223,0.07-0.332,0.211-0.332c0.16,0,0.25,0.11,0.271,0.334
		c0.119,0.932,0.383,1.66,0.785,2.186c0.805,1.055,1.881,1.58,3.23,1.58c0.723,0,1.307-0.212,1.75-0.634
		c0.439-0.423,0.664-0.987,0.664-1.693c0-0.784-0.252-1.408-0.754-1.87c-0.283-0.263-0.541-0.45-0.771-0.56
		c-0.229-0.11-0.912-0.38-2.039-0.803c-2.23-0.845-3.35-2.115-3.35-3.807c0-1.128,0.379-2.074,1.139-2.84
		c0.756-0.767,1.695-1.148,2.814-1.148c0.398,0,0.998,0.12,1.795,0.36c0.201,0.062,0.379,0.092,0.541,0.092
		c0.42,0,0.678-0.202,0.779-0.604c0.059-0.2,0.148-0.302,0.27-0.302c0.139,0,0.209,0.08,0.209,0.242v1.446
		c-0.021,0.483,0.031,1.257,0.15,2.323v0.06c0,0.16-0.08,0.24-0.242,0.24c-0.119,0-0.27-0.304-0.453-0.913
		c-0.219-0.73-0.607-1.318-1.162-1.764c-0.553-0.447-1.191-0.67-1.916-0.67c-0.686,0-1.248,0.21-1.689,0.635
		s-0.664,0.958-0.664,1.603c0,1.008,0.674,1.773,2.021,2.297c2.092,0.827,3.42,1.512,3.984,2.055
		c0.723,0.706,1.086,1.562,1.086,2.57 M146.655,557.776c0,0.182-0.17,0.272-0.512,0.272c0.02,0-0.221-0.02-0.725-0.062
		c-0.604-0.04-1.105-0.06-1.51-0.06h-3.139c-0.1,0.08-0.219,0.12-0.361,0.12c-0.221,0-0.33-0.073-0.33-0.224
		c0-0.212,0.199-0.318,0.604-0.318c0.762-0.02,1.182-0.075,1.252-0.166c0.068-0.091,0.104-0.507,0.104-1.25v-9.137
		c-0.02-0.503-0.045-0.8-0.074-0.89c-0.029-0.09-0.156-0.135-0.379-0.135h-1.176c-0.221,0-0.332-0.07-0.332-0.21
		c0-0.125,0.168-0.194,0.506-0.213c1.33-0.058,2.471-0.37,3.426-0.94l0.297-0.175c0.158,0.302,0.238,0.853,0.238,1.654v9.685
		c0,0.804,0.016,1.273,0.045,1.413c0.029,0.14,0.135,0.23,0.314,0.272c0.303,0.08,0.744,0.12,1.33,0.12
		c0.283,0.002,0.424,0.08,0.424,0.243 M144.393,538.992c0,0.904-0.453,1.356-1.357,1.356c-0.383,0-0.705-0.125-0.965-0.377
		c-0.262-0.25-0.395-0.557-0.395-0.92c0-0.943,0.453-1.415,1.359-1.415S144.393,538.088,144.393,538.992 M156.825,556.178
		c0,0.18-0.252,0.502-0.754,0.965c-0.865,0.784-1.891,1.177-3.078,1.177c-1.105,0-1.941-0.28-2.504-0.843
		c-0.32-0.322-0.482-1.264-0.482-2.828v-8.965c-0.02-0.2-0.133-0.31-0.332-0.33h-1.146c-0.443,0-0.666-0.07-0.666-0.212
		c0-0.142,0.111-0.22,0.33-0.24c1.559-0.144,2.779-0.915,3.66-2.32c0.117-0.182,0.27-0.272,0.449-0.272
		c0.139,0,0.209,0.07,0.209,0.21v0.634c0,0.844,0.041,1.387,0.121,1.627c0.182,0.04,0.482,0.06,0.904,0.06
		c1.107,0,1.84-0.05,2.203-0.148c0.08-0.02,0.15-0.03,0.211-0.03c0.162,0,0.242,0.086,0.242,0.26c0,0.29-0.816,0.433-2.445,0.433
		h-1.236v5.577c0,2.813,0.07,4.58,0.211,5.29c0.141,0.716,0.604,1.072,1.389,1.072c0.666,0,1.408-0.372,2.234-1.116
		c0.08-0.102,0.17-0.152,0.27-0.152C156.757,556.024,156.825,556.074,156.825,556.178 M169.2,554.67c0,0.202-0.156,0.558-0.469,1.07
		c-0.311,0.513-0.629,0.93-0.951,1.25c-0.865,0.886-2.02,1.33-3.469,1.33c-1.811,0-3.326-0.655-4.543-1.962
		s-1.826-2.925-1.826-4.854c0-2.01,0.578-3.688,1.734-5.035c1.156-1.345,2.6-2.02,4.33-2.02c1.43,0,2.627,0.418,3.594,1.25
		c0.965,0.835,1.477,1.905,1.537,3.212c-0.643,0.102-1.498,0.14-2.564,0.122h-2.111c-0.143,0-1.348,0.03-3.619,0.09
		c-0.104,0.66-0.15,1.292-0.15,1.892c0,2.023,0.385,3.58,1.16,4.672c0.771,1.092,1.865,1.638,3.273,1.638
		c0.805,0,1.447-0.182,1.932-0.544c0.482-0.36,1.008-1.056,1.57-2.08c0.08-0.16,0.189-0.24,0.33-0.24
		C169.12,554.461,169.2,554.531,169.2,554.67 M166.573,548.521c-0.08-2.41-0.945-3.617-2.596-3.617
		c-1.629,0-2.646,1.206-3.047,3.618h5.643V548.521z M167.964,537.938l-2.746,2.882c-1.209,1.275-1.914,1.912-2.113,1.912
		c-0.123,0-0.184-0.05-0.184-0.15c0-0.04,0.021-0.102,0.061-0.18c0.223-0.545,0.555-1.328,0.996-2.354l0.969-2.11h3.016H167.964z
		 M49.324,548.178c0.04-0.98,0.061-1.948,0.061-2.912c0-0.91-0.008-1.9-0.021-2.968c-0.014-1.066-0.034-2.147-0.06-3.242
		c0.649,0.13,1.199,0.195,1.642,0.195c0.416,0,0.95-0.064,1.603-0.195c-0.131,1.563-0.23,3.274-0.294,5.137
		c-0.065,1.86-0.1,3.77-0.1,5.723c0,1.354,0.12,2.388,0.354,3.104c0.233,0.717,0.52,1.258,0.859,1.622
		c0.365,0.416,0.827,0.762,1.389,1.034c0.562,0.273,1.22,0.41,1.976,0.41c1.095,0,2.007-0.24,2.737-0.723
		c0.729-0.48,1.264-1.073,1.603-1.776c0.182-0.443,0.326-0.82,0.43-1.135c0.104-0.312,0.19-0.73,0.255-1.248
		c0.064-0.52,0.104-1.225,0.116-2.11c0.014-0.885,0.021-2.095,0.021-3.632v-3.28c0-0.573-0.007-1.12-0.021-1.642
		c-0.013-0.521-0.032-1.016-0.06-1.484c0.288,0.052,0.56,0.098,0.822,0.136c0.26,0.04,0.532,0.06,0.819,0.06
		c0.286,0,0.561-0.02,0.82-0.06c0.262-0.038,0.521-0.084,0.783-0.137c-0.13,2.03-0.21,3.99-0.235,5.878
		c-0.024,1.888-0.036,3.887-0.036,5.995c0,1.173,0.015,2.32,0.04,3.44c0.024,1.12,0.064,2.2,0.117,3.24
		c-0.522-0.052-1.03-0.078-1.525-0.078c-0.494,0-1.003,0.026-1.523,0.08c0.024-0.235,0.045-0.48,0.06-0.743
		c0.013-0.26,0.021-0.533,0.021-0.82v-1.68h-0.08c-0.678,1.25-1.55,2.166-2.62,2.753c-1.067,0.585-2.227,0.88-3.479,0.88
		c-2.032,0-3.63-0.54-4.789-1.622c-1.16-1.08-1.74-2.636-1.74-4.666C49.268,550.333,49.287,549.154,49.324,548.178"/>
	<path fill="none" stroke="#120C15" stroke-width="0.685" d="M49.324,548.178c0.04-0.98,0.061-1.948,0.061-2.912
		c0-0.91-0.008-1.9-0.021-2.968c-0.014-1.066-0.034-2.147-0.06-3.242c0.649,0.13,1.199,0.195,1.642,0.195
		c0.416,0,0.95-0.064,1.603-0.195c-0.131,1.563-0.23,3.274-0.294,5.137c-0.065,1.86-0.1,3.77-0.1,5.723
		c0,1.354,0.12,2.388,0.354,3.104c0.233,0.717,0.52,1.258,0.859,1.622c0.365,0.416,0.827,0.762,1.389,1.034
		c0.562,0.273,1.22,0.41,1.976,0.41c1.095,0,2.007-0.24,2.737-0.723c0.729-0.48,1.264-1.073,1.603-1.776
		c0.182-0.443,0.326-0.82,0.43-1.135c0.104-0.312,0.19-0.73,0.255-1.248c0.064-0.52,0.104-1.225,0.116-2.11
		c0.014-0.885,0.021-2.095,0.021-3.632v-3.28c0-0.573-0.007-1.12-0.021-1.642c-0.013-0.521-0.032-1.016-0.06-1.484
		c0.288,0.052,0.56,0.098,0.822,0.136c0.26,0.04,0.532,0.06,0.819,0.06c0.286,0,0.561-0.02,0.82-0.06
		c0.262-0.038,0.521-0.084,0.783-0.137c-0.13,2.03-0.21,3.99-0.235,5.878c-0.024,1.888-0.036,3.887-0.036,5.995
		c0,1.173,0.015,2.32,0.04,3.44c0.024,1.12,0.064,2.2,0.117,3.24c-0.522-0.052-1.03-0.078-1.525-0.078
		c-0.494,0-1.003,0.026-1.523,0.08c0.024-0.235,0.045-0.48,0.06-0.743c0.013-0.26,0.021-0.533,0.021-0.82v-1.68h-0.08
		c-0.678,1.25-1.55,2.166-2.62,2.753c-1.067,0.585-2.227,0.88-3.479,0.88c-2.032,0-3.63-0.54-4.789-1.622
		c-1.16-1.08-1.74-2.636-1.74-4.666C49.268,550.333,49.287,549.154,49.324,548.178L49.324,548.178z"/>
	<path fill="#120C15" d="M73.004,581.388c0,0.146-0.14,0.221-0.42,0.221c0.017,0-0.182-0.016-0.593-0.049
		c-0.494-0.033-0.906-0.05-1.234-0.05h-2.569c-0.082,0.065-0.18,0.101-0.295,0.101c-0.181,0-0.271-0.062-0.271-0.186
		c0-0.174,0.163-0.26,0.493-0.26c0.625-0.018,0.967-0.062,1.024-0.135c0.058-0.076,0.086-0.416,0.086-1.024v-7.476
		c-0.018-0.41-0.037-0.652-0.062-0.727c-0.024-0.075-0.128-0.11-0.31-0.11h-0.961c-0.181,0-0.271-0.06-0.271-0.173
		c0-0.102,0.138-0.158,0.413-0.174c1.088-0.048,2.022-0.305,2.802-0.77l0.243-0.143c0.13,0.246,0.196,0.697,0.196,1.354v7.925
		c0,0.654,0.01,1.04,0.035,1.154c0.024,0.115,0.109,0.188,0.26,0.222c0.247,0.065,0.608,0.1,1.086,0.1
		c0.23,0,0.347,0.065,0.347,0.198 M71.152,566.018c0,0.74-0.37,1.11-1.112,1.11c-0.312,0-0.576-0.103-0.79-0.31
		c-0.215-0.206-0.319-0.455-0.319-0.753c0-0.772,0.37-1.16,1.109-1.16C70.781,564.905,71.152,565.275,71.152,566.018
		 M83.102,573.025c0,0.757-0.37,1.134-1.11,1.134c-0.725,0-1.088-0.346-1.088-1.034c0-0.182,0.083-0.453,0.247-0.814
		c0.05-0.115,0.075-0.23,0.075-0.346c0-0.328-0.17-0.6-0.506-0.814c-0.337-0.214-0.763-0.32-1.271-0.32
		c-0.99,0-1.754,0.43-2.298,1.283c-0.543,0.855-0.815,2.057-0.815,3.602c0,1.743,0.28,3.086,0.841,4.033
		c0.56,0.945,1.35,1.42,2.369,1.42c0.69,0,1.309-0.217,1.853-0.645c0.247-0.195,0.568-0.574,0.963-1.135
		c0.082-0.08,0.156-0.12,0.222-0.12c0.165,0,0.247,0.065,0.247,0.195c0,0.215-0.288,0.617-0.863,1.21
		c-0.74,0.771-1.688,1.16-2.841,1.16c-1.449,0-2.646-0.52-3.592-1.557c-0.947-1.035-1.42-2.345-1.42-3.922
		c0-1.693,0.502-3.097,1.506-4.207c1.002-1.11,2.263-1.663,3.777-1.663c0.973,0,1.832,0.255,2.582,0.765
		c0.75,0.51,1.122,1.1,1.122,1.775 M93.547,578.846c0,0.164-0.128,0.457-0.383,0.876c-0.256,0.42-0.515,0.76-0.777,1.023
		c-0.71,0.725-1.655,1.086-2.841,1.086c-1.481,0-2.72-0.535-3.717-1.604s-1.494-2.394-1.494-3.973c0-1.644,0.473-3.018,1.418-4.12
		c0.946-1.102,2.129-1.65,3.543-1.65c1.171,0,2.15,0.34,2.94,1.02c0.79,0.684,1.21,1.56,1.26,2.63
		c-0.527,0.08-1.228,0.115-2.1,0.098h-1.73c-0.114,0-1.102,0.024-2.962,0.074c-0.082,0.54-0.123,1.057-0.123,1.548
		c0,1.653,0.316,2.929,0.95,3.82c0.635,0.894,1.527,1.34,2.68,1.34c0.658,0,1.186-0.147,1.58-0.442
		c0.396-0.297,0.823-0.863,1.285-1.703c0.065-0.131,0.156-0.197,0.271-0.197c0.133,0,0.199,0.061,0.199,0.173 M91.397,573.812
		c-0.065-1.973-0.773-2.96-2.122-2.96c-1.334,0-2.166,0.987-2.494,2.96H91.397L91.397,573.812z M60.877,566.171
		c-0.755-1.002-1.798-1.505-3.127-1.505c-1.824,0-3.159,0.562-4.008,1.68c-0.847,1.12-1.27,2.696-1.27,4.726v3.32
		c0,1.172,0.02,2.402,0.06,3.69c0.038,1.29,0.122,2.456,0.252,3.495c-0.6-0.053-1.186-0.078-1.76-0.078
		c-0.573,0-1.16,0.025-1.76,0.076c0.132-1.039,0.216-2.205,0.255-3.494s0.06-2.521,0.06-3.69v-4.063c0-1.17-0.02-2.4-0.06-3.69
		s-0.124-2.493-0.254-3.613c0.729,0.13,1.315,0.195,1.76,0.195c0.208,0,0.436-0.02,0.684-0.06s0.542-0.084,0.881-0.137
		c-0.078,1.043-0.117,2.085-0.117,3.126h0.078c0.731-1.12,1.607-1.986,2.628-2.6c1.02-0.61,2.235-0.916,3.647-0.916
		c0.732,0,1.47,0.104,2.216,0.313c0.745,0.21,1.42,0.566,2.021,1.073c0.6,0.51,1.092,1.198,1.47,2.07
		c0.38,0.874,0.57,1.987,0.57,3.34c0,1.12-0.027,2.27-0.08,3.456c-0.052,1.185-0.077,2.44-0.077,3.767v2.541
		c0,0.418,0.006,0.826,0.021,1.229c0.013,0.405,0.029,0.788,0.058,1.149c-0.527-0.049-1.08-0.076-1.66-0.076
		c-0.556,0-1.097,0.027-1.623,0.078c0.05-1.354,0.11-2.746,0.176-4.178c0.064-1.432,0.099-2.902,0.099-4.413v-2.384
		c0-1.95-0.38-3.427-1.136-4.43"/>
	<path fill="none" stroke="#120C15" stroke-width="0.685" d="M60.877,566.171c-0.755-1.002-1.798-1.505-3.127-1.505
		c-1.824,0-3.159,0.562-4.008,1.68c-0.847,1.12-1.27,2.696-1.27,4.726v3.32c0,1.172,0.02,2.402,0.06,3.69
		c0.038,1.29,0.122,2.456,0.252,3.495c-0.6-0.053-1.186-0.078-1.76-0.078c-0.573,0-1.16,0.025-1.76,0.076
		c0.132-1.039,0.216-2.205,0.255-3.494s0.06-2.521,0.06-3.69v-4.063c0-1.17-0.02-2.4-0.06-3.69s-0.124-2.493-0.254-3.613
		c0.729,0.13,1.315,0.195,1.76,0.195c0.208,0,0.436-0.02,0.684-0.06s0.542-0.084,0.881-0.137c-0.078,1.043-0.117,2.085-0.117,3.126
		h0.078c0.731-1.12,1.607-1.986,2.628-2.6c1.02-0.61,2.235-0.916,3.647-0.916c0.732,0,1.47,0.104,2.216,0.313
		c0.745,0.21,1.42,0.566,2.021,1.073c0.6,0.51,1.092,1.198,1.47,2.07c0.38,0.874,0.57,1.987,0.57,3.34c0,1.12-0.027,2.27-0.08,3.456
		c-0.052,1.185-0.077,2.44-0.077,3.767v2.541c0,0.418,0.006,0.826,0.021,1.229c0.013,0.405,0.029,0.788,0.058,1.149
		c-0.527-0.049-1.08-0.076-1.66-0.076c-0.556,0-1.097,0.027-1.623,0.078c0.05-1.354,0.11-2.746,0.176-4.178
		c0.064-1.432,0.099-2.902,0.099-4.413v-2.384c0-1.95-0.38-3.427-1.136-4.43L60.877,566.171z"/>
	<path fill="#120C15" d="M51.573,603.178c0.348,0.333,0.762,0.647,1.243,0.94c0.479,0.293,1.026,0.537,1.64,0.733
		c0.612,0.195,1.268,0.293,1.963,0.293c0.631,0,1.234-0.084,1.814-0.252c0.58-0.167,1.094-0.403,1.54-0.712
		c0.45-0.308,0.804-0.697,1.07-1.173c0.265-0.476,0.397-1.021,0.397-1.634c0-0.866-0.29-1.53-0.87-1.99s-1.3-0.84-2.163-1.132
		c-0.861-0.293-1.807-0.55-2.833-0.774c-1.029-0.223-1.973-0.537-2.834-0.943c-0.861-0.403-1.583-0.941-2.162-1.611
		s-0.869-1.592-0.869-2.766c0-0.922,0.182-1.767,0.547-2.533c0.364-0.771,0.896-1.432,1.59-1.99c0.697-0.561,1.56-0.998,2.587-1.32
		c1.026-0.32,2.203-0.481,3.528-0.481c1.226,0,2.262,0.14,3.105,0.42c0.846,0.28,1.65,0.53,2.412,0.754
		c-0.266,0.42-0.514,0.937-0.746,1.55c-0.231,0.615-0.38,1.09-0.448,1.426h-0.598c-0.264-0.671-0.777-1.271-1.54-1.801
		c-0.763-0.531-1.707-0.798-2.833-0.798c-0.497,0-0.994,0.069-1.49,0.21c-0.498,0.141-0.944,0.35-1.343,0.628
		c-0.397,0.278-0.729,0.644-0.994,1.09c-0.266,0.446-0.396,0.978-0.396,1.593c0,0.894,0.29,1.584,0.87,2.071
		c0.58,0.49,1.3,0.875,2.161,1.153c0.86,0.279,1.807,0.521,2.833,0.732c1.027,0.209,1.971,0.504,2.833,0.879
		c0.862,0.377,1.583,0.9,2.163,1.572c0.58,0.67,0.87,1.59,0.87,2.764c0,0.811-0.207,1.607-0.622,2.391
		c-0.413,0.779-1.01,1.486-1.787,2.115c-0.779,0.628-1.716,1.117-2.81,1.466c-1.092,0.351-2.334,0.522-3.727,0.522
		c-1.524,0-2.801-0.127-3.827-0.377c-1.028-0.252-1.891-0.545-2.585-0.881c0.199-0.361,0.404-0.857,0.62-1.486
		s0.323-1.152,0.323-1.57h0.597c0.166,0.277,0.422,0.585,0.77,0.92"/>
	<path fill="none" stroke="#120C15" stroke-width="0.685" d="M51.573,603.178c0.348,0.333,0.762,0.647,1.243,0.94
		c0.479,0.293,1.026,0.537,1.64,0.733c0.612,0.195,1.268,0.293,1.963,0.293c0.631,0,1.234-0.084,1.814-0.252
		c0.58-0.167,1.094-0.403,1.54-0.712c0.45-0.308,0.804-0.697,1.07-1.173c0.265-0.476,0.397-1.021,0.397-1.634
		c0-0.866-0.29-1.53-0.87-1.99s-1.3-0.84-2.163-1.132c-0.861-0.293-1.807-0.55-2.833-0.774c-1.029-0.223-1.973-0.537-2.834-0.943
		c-0.861-0.403-1.583-0.941-2.162-1.611s-0.869-1.592-0.869-2.766c0-0.922,0.182-1.767,0.547-2.533
		c0.364-0.771,0.896-1.432,1.59-1.99c0.697-0.561,1.56-0.998,2.587-1.32c1.026-0.32,2.203-0.481,3.528-0.481
		c1.226,0,2.262,0.14,3.105,0.42c0.846,0.28,1.65,0.53,2.412,0.754c-0.266,0.42-0.514,0.937-0.746,1.55
		c-0.231,0.615-0.38,1.09-0.448,1.426h-0.598c-0.264-0.671-0.777-1.271-1.54-1.801c-0.763-0.531-1.707-0.798-2.833-0.798
		c-0.497,0-0.994,0.069-1.49,0.21c-0.498,0.141-0.944,0.35-1.343,0.628c-0.397,0.278-0.729,0.644-0.994,1.09
		c-0.266,0.446-0.396,0.978-0.396,1.593c0,0.894,0.29,1.584,0.87,2.071c0.58,0.49,1.3,0.875,2.161,1.153
		c0.86,0.279,1.807,0.521,2.833,0.732c1.027,0.209,1.971,0.504,2.833,0.879c0.862,0.377,1.583,0.9,2.163,1.572
		c0.58,0.67,0.87,1.59,0.87,2.764c0,0.811-0.207,1.607-0.622,2.391c-0.413,0.779-1.01,1.486-1.787,2.115
		c-0.779,0.628-1.716,1.117-2.81,1.466c-1.092,0.351-2.334,0.522-3.727,0.522c-1.524,0-2.801-0.127-3.827-0.377
		c-1.028-0.252-1.891-0.545-2.585-0.881c0.199-0.361,0.404-0.857,0.62-1.486s0.323-1.152,0.323-1.57h0.597
		c0.166,0.277,0.422,0.585,0.77,0.92V603.178z"/>
	<path fill="#120C15" d="M76.558,601.265c0,1.594-0.484,2.932-1.455,4.008c-0.973,1.078-2.181,1.616-3.63,1.616
		c-1.498,0-2.75-0.537-3.753-1.614c-1.006-1.076-1.507-2.414-1.507-4.009c0-1.646,0.49-3.01,1.471-4.096
		c0.978-1.084,2.2-1.626,3.666-1.626c1.481,0,2.72,0.547,3.717,1.64c0.994,1.095,1.49,2.454,1.49,4.083 M74.312,601.242
		c0-1.81-0.28-3.215-0.84-4.219c-0.41-0.738-1.103-1.107-2.073-1.107c-0.922,0-1.642,0.47-2.16,1.418
		c-0.52,0.943-0.78,2.257-0.78,3.934c0,1.662,0.276,2.957,0.828,3.885c0.552,0.931,1.32,1.395,2.311,1.395
		c0.757,0,1.315-0.287,1.68-0.862C73.967,604.597,74.312,603.117,74.312,601.242 M88.018,601.119c0,1.643-0.467,3.017-1.4,4.117
		c-0.934,1.103-2.094,1.652-3.479,1.652c-1.091,0-1.935-0.395-2.528-1.184v5.746c0,0.36,0.013,0.576,0.037,0.641
		c0.023,0.066,0.104,0.124,0.237,0.175c0.25,0.05,0.731,0.074,1.449,0.074c0.2,0,0.301,0.073,0.301,0.22
		c0,0.117-0.108,0.176-0.322,0.176h-4.84c-0.478,0-0.714-0.062-0.714-0.185c0-0.158,0.1-0.235,0.296-0.235h0.739
		c0.48,0,0.732-0.106,0.767-0.32c0.016-0.101,0.024-0.855,0.024-2.271v-12.284c0-0.459-0.223-0.674-0.667-0.64H76.88
		c-0.147,0-0.222-0.062-0.222-0.185c0-0.157,0.183-0.236,0.544-0.236c0.904,0.018,1.729-0.196,2.47-0.643
		c0.214-0.129,0.379-0.195,0.493-0.195c0.132,0,0.219,0.062,0.261,0.185s0.069,0.497,0.086,1.12c0.609-0.87,1.479-1.306,2.616-1.306
		c1.433,0,2.605,0.52,3.521,1.565c0.912,1.045,1.37,2.381,1.37,4.01 M85.821,601.127c0-1.285-0.2-2.38-0.595-3.287
		c-0.53-1.253-1.351-1.88-2.456-1.88c-0.578,0-1.075,0.201-1.49,0.605c-0.412,0.4-0.635,0.894-0.668,1.471
		c-0.033,0.725-0.025,2.25,0.025,4.574c0.016,1.17,0.04,1.875,0.073,2.113c0.035,0.24,0.143,0.48,0.324,0.73
		c0.48,0.675,1.101,1.013,1.86,1.013c0.859,0,1.505-0.362,1.936-1.087c0.66-1.104,0.992-2.521,0.992-4.252 M99.87,606.445
		c0,0.133-0.141,0.198-0.42,0.198h-4.496c-0.213,0-0.318-0.065-0.318-0.198c0-0.112,0.309-0.17,0.936-0.17
		c0.379,0,0.598-0.047,0.654-0.137s0.086-0.396,0.086-0.924v-4.994c0-1.493-0.066-2.42-0.197-2.779
		c-0.281-0.756-0.898-1.134-1.854-1.134c-0.79,0-1.433,0.353-1.926,1.058c-0.166,0.229-0.248,0.737-0.248,1.525v6.275
		c0,0.441,0.009,0.697,0.024,0.762c0.017,0.164,0.083,0.26,0.198,0.284c0.116,0.024,0.47,0.045,1.062,0.062
		c0.198,0,0.296,0.064,0.296,0.196c0,0.114-0.083,0.173-0.247,0.173h-2.196c-1.368-0.018-2.125-0.018-2.272,0h-0.246
		c-0.182,0-0.271-0.05-0.271-0.15c0-0.112,0.09-0.17,0.271-0.17h0.37l0.372-0.024c0.378,0.017,0.576-0.101,0.592-0.347v-11.092
		c0-2.636-0.04-4.061-0.124-4.274c-0.098-0.164-0.5-0.255-1.21-0.271c-0.395,0-0.592-0.062-0.592-0.184
		c0-0.105,0.04-0.168,0.124-0.186c0.082-0.019,0.362-0.033,0.84-0.051c0.838-0.017,1.646-0.215,2.42-0.595
		c0.064-0.03,0.181-0.07,0.346-0.122c0.114,0.198,0.173,0.83,0.173,1.9v6.043c0.725-1.053,1.712-1.579,2.962-1.579
		c1.316,0,2.256,0.362,2.814,1.087c0.281,0.359,0.453,0.87,0.521,1.527c0.031,0.23,0.047,0.78,0.047,1.652v6.217
		c0.018,0.164,0.445,0.246,1.285,0.246c0.146,0.035,0.221,0.092,0.221,0.174 M105.425,606.445c0,0.148-0.141,0.224-0.42,0.224
		c0.018,0-0.18-0.019-0.592-0.05c-0.494-0.033-0.904-0.051-1.234-0.051h-2.568c-0.082,0.066-0.182,0.101-0.297,0.101
		c-0.182,0-0.271-0.06-0.271-0.183c0-0.176,0.164-0.264,0.494-0.264c0.627-0.016,0.967-0.061,1.025-0.135
		c0.057-0.075,0.086-0.417,0.086-1.024v-7.474c-0.018-0.41-0.039-0.655-0.064-0.729c-0.023-0.074-0.127-0.109-0.309-0.109h-0.961
		c-0.184,0-0.273-0.061-0.273-0.176c0-0.102,0.141-0.159,0.416-0.172c1.086-0.047,2.02-0.305,2.799-0.769l0.244-0.147
		c0.131,0.246,0.195,0.697,0.195,1.354v7.926c0,0.655,0.012,1.04,0.037,1.156c0.023,0.112,0.109,0.187,0.26,0.22
		c0.246,0.066,0.607,0.1,1.086,0.1c0.23,0,0.344,0.066,0.344,0.197 M103.571,591.074c0,0.739-0.371,1.109-1.113,1.109
		c-0.311,0-0.574-0.104-0.789-0.311c-0.215-0.205-0.32-0.455-0.32-0.752c0-0.772,0.371-1.159,1.109-1.159
		c0.74,0,1.113,0.37,1.113,1.11 M115.622,605.484c0,0.279-0.291,0.569-0.873,0.875c-0.58,0.307-1.139,0.459-1.682,0.459
		c-1.129,0-1.719-0.584-1.77-1.752c-0.623,1.217-1.588,1.824-2.9,1.824c-0.703,0-1.285-0.21-1.742-0.627
		c-0.459-0.42-0.688-0.96-0.688-1.615c0-1.351,0.807-2.418,2.42-3.209c0.557-0.263,1.52-0.525,2.889-0.789v-0.615
		c0-1.447-0.076-2.4-0.223-2.863c-0.264-0.838-0.855-1.256-1.777-1.256c-0.578,0-1.059,0.154-1.445,0.467s-0.582,0.707-0.582,1.186
		c0,0.131,0.102,0.194,0.303,0.194s0.383,0.101,0.543,0.297c0.16,0.197,0.242,0.42,0.242,0.667c0,0.725-0.359,1.086-1.076,1.086
		c-0.375,0-0.684-0.128-0.93-0.383s-0.365-0.58-0.365-0.975c0-0.773,0.305-1.438,0.912-1.998c0.676-0.607,1.613-0.912,2.814-0.912
		c1.811,0,2.922,0.494,3.334,1.48c0.15,0.379,0.225,1.125,0.225,2.243v4.612c0,0.756,0.008,1.199,0.023,1.332
		c0.082,0.592,0.322,0.887,0.715,0.887c0.461,0,0.84-0.163,1.137-0.492c0.164-0.18,0.287-0.27,0.371-0.27
		S115.622,605.385,115.622,605.484 M111.278,602.869v-1.801c-1.219,0.28-2.09,0.646-2.617,1.099s-0.791,1.057-0.791,1.812
		c0,0.526,0.148,0.96,0.451,1.295c0.299,0.338,0.676,0.506,1.129,0.506c0.699,0,1.258-0.394,1.68-1.183
		c0.1-0.18,0.146-0.756,0.146-1.728 M135.6,606.432c0,0.14-0.125,0.21-0.371,0.21c-0.166,0-0.314-0.008-0.445-0.023l-3.135-0.1
		l-3.135,0.1c-0.117,0.018-0.24,0.025-0.371,0.025c-0.33,0-0.494-0.087-0.494-0.26c0-0.188,0.219-0.284,0.666-0.284
		c1.451-0.015,2.172-0.159,2.172-0.434c0-0.017-0.016-0.08-0.049-0.193l-0.203-0.649l-0.127-0.347
		c-0.146-0.51-0.51-1.638-1.084-3.382h-5.279c-0.984,2.63-1.479,4.145-1.479,4.537c0,0.232,0.1,0.37,0.297,0.42
		c0.049,0.018,0.459,0.05,1.234,0.1c0.477,0.017,0.715,0.099,0.715,0.246c0,0.165-0.215,0.247-0.643,0.247
		c-0.756,0-1.639-0.034-2.643-0.1c-0.248-0.017-0.502-0.024-0.766-0.024c-0.262,0-0.518,0.028-0.766,0.083
		c-0.133,0.027-0.24,0.042-0.322,0.042c-0.229,0-0.346-0.074-0.346-0.223c0-0.15,0.26-0.23,0.779-0.247s0.891-0.097,1.123-0.235
		c0.23-0.143,0.412-0.41,0.543-0.807c2.117-6.07,3.84-10.947,5.17-14.627c0.041-0.193,0.115-0.412,0.23-0.655l0.105-0.45
		c0.049-0.182,0.115-0.27,0.199-0.27c0.049,0,0.09,0.047,0.123,0.146c0.215,0.64,0.699,1.981,1.457,4.02
		c0.592,1.596,2.064,5.6,4.42,12.014c0.129,0.373,0.299,0.61,0.506,0.711c0.205,0.1,0.629,0.159,1.271,0.18
		c0.43,0.014,0.643,0.092,0.643,0.231 M128.909,600.527l-1.332-3.678l-1.188-3.42c-0.693,1.82-1.529,4.186-2.502,7.098H128.909
		L128.909,600.527z"/>
	<path fill="#120C15" d="M146.561,606.458c0,0.123-0.123,0.185-0.369,0.185h-4.545c-0.215,0-0.322-0.06-0.322-0.173
		c0-0.082,0.045-0.132,0.137-0.148c0.09-0.016,0.406-0.029,0.949-0.047c0.314-0.018,0.496-0.062,0.545-0.137s0.074-0.34,0.074-0.8
		v-4.726c0-1.787-0.066-2.854-0.197-3.199c-0.279-0.737-0.84-1.106-1.68-1.106c-0.824,0-1.516,0.36-2.076,1.082
		c-0.164,0.213-0.246,0.509-0.246,0.886v7.678c0,0.197,0.178,0.305,0.527,0.32l0.754,0.023c0.168,0,0.25,0.058,0.25,0.172
		s-0.098,0.173-0.295,0.173h-4.496c-0.248,0-0.369-0.05-0.369-0.149c0-0.103,0.146-0.166,0.443-0.195h0.617
		c0.246,0,0.396-0.059,0.443-0.173l0.076-0.367v-5.365c0-1.87-0.018-2.901-0.051-3.1c-0.033-0.195-0.24-0.296-0.617-0.296h-0.715
		c-0.33,0-0.494-0.06-0.494-0.184c0-0.156,0.172-0.236,0.52-0.236c0.492-0.016,1.027-0.105,1.604-0.27
		c0.576-0.165,0.98-0.354,1.209-0.57c0.148-0.129,0.264-0.194,0.346-0.194c0.115,0,0.172,0.155,0.172,0.47v1.184
		c0.855-1.103,1.959-1.652,3.311-1.652c1.184,0,2.041,0.436,2.568,1.307c0.295,0.494,0.443,1.432,0.443,2.812v5.625
		c0,0.524,0.025,0.812,0.074,0.863c0.1,0.098,0.338,0.146,0.715,0.146h0.445c0.168,0,0.25,0.053,0.25,0.16 M154.241,605.138
		c0,0.148-0.207,0.41-0.617,0.79c-0.709,0.64-1.547,0.96-2.52,0.96c-0.904,0-1.588-0.229-2.047-0.688
		c-0.266-0.262-0.398-1.033-0.398-2.313v-7.334c-0.016-0.164-0.105-0.255-0.271-0.271h-0.938c-0.361,0-0.543-0.06-0.543-0.174
		c0-0.113,0.09-0.181,0.271-0.195c1.275-0.116,2.271-0.75,2.992-1.896c0.1-0.15,0.221-0.227,0.367-0.227
		c0.115,0,0.172,0.06,0.172,0.173v0.521c0,0.688,0.033,1.133,0.102,1.329c0.146,0.034,0.395,0.05,0.74,0.05
		c0.904,0,1.506-0.039,1.803-0.123c0.064-0.018,0.123-0.023,0.172-0.023c0.133,0,0.199,0.07,0.199,0.21c0,0.24-0.668,0.356-2,0.356
		h-1.016v4.562c0,2.304,0.059,3.746,0.174,4.33c0.115,0.583,0.494,0.876,1.137,0.876c0.543,0,1.15-0.305,1.828-0.914
		c0.062-0.082,0.137-0.123,0.221-0.123c0.115,0,0.172,0.04,0.172,0.122 M159.848,606.445c0,0.148-0.141,0.224-0.42,0.224
		c0.016,0-0.184-0.019-0.596-0.05c-0.492-0.033-0.904-0.051-1.232-0.051h-2.568c-0.082,0.066-0.182,0.101-0.297,0.101
		c-0.182,0-0.271-0.06-0.271-0.183c0-0.176,0.166-0.264,0.494-0.264c0.625-0.016,0.967-0.061,1.025-0.135
		c0.057-0.075,0.086-0.417,0.086-1.024v-7.474c-0.016-0.41-0.035-0.655-0.061-0.729c-0.025-0.074-0.129-0.109-0.311-0.109h-0.963
		c-0.182,0-0.271-0.061-0.271-0.176c0-0.102,0.139-0.159,0.414-0.172c1.09-0.047,2.021-0.305,2.803-0.769l0.244-0.147
		c0.129,0.246,0.193,0.697,0.193,1.354v7.926c0,0.655,0.012,1.04,0.037,1.156c0.025,0.112,0.109,0.187,0.26,0.22
		c0.246,0.066,0.609,0.1,1.086,0.1c0.23,0,0.348,0.066,0.348,0.197 M157.995,591.074c0,0.739-0.371,1.109-1.111,1.109
		c-0.312,0-0.576-0.104-0.791-0.311c-0.213-0.205-0.32-0.455-0.32-0.752c0-0.772,0.371-1.159,1.111-1.159
		c0.738,0,1.111,0.37,1.111,1.11 M171.501,601.119c0,1.643-0.467,3.017-1.4,4.117c-0.932,1.103-2.092,1.652-3.48,1.652
		c-1.09,0-1.932-0.395-2.525-1.184v5.746c0,0.36,0.014,0.576,0.037,0.641c0.025,0.066,0.104,0.124,0.236,0.175
		c0.252,0.05,0.734,0.074,1.451,0.074c0.199,0,0.301,0.073,0.301,0.22c0,0.117-0.105,0.176-0.318,0.176h-4.844
		c-0.479,0-0.715-0.062-0.715-0.185c0-0.158,0.098-0.235,0.295-0.235h0.742c0.479,0,0.732-0.106,0.766-0.32
		c0.016-0.101,0.023-0.855,0.023-2.271v-12.284c0-0.459-0.221-0.674-0.664-0.64h-1.037c-0.148,0-0.223-0.062-0.223-0.185
		c0-0.157,0.182-0.236,0.543-0.236c0.904,0.018,1.729-0.196,2.469-0.643c0.215-0.129,0.379-0.195,0.494-0.195
		c0.133,0,0.219,0.062,0.26,0.185c0.043,0.123,0.07,0.497,0.086,1.12c0.611-0.87,1.48-1.306,2.617-1.306
		c1.432,0,2.605,0.52,3.521,1.565c0.908,1.045,1.367,2.381,1.367,4.01 M169.305,601.127c0-1.285-0.197-2.38-0.596-3.287
		c-0.529-1.253-1.346-1.88-2.455-1.88c-0.578,0-1.074,0.201-1.488,0.605c-0.414,0.4-0.637,0.894-0.67,1.471
		c-0.033,0.725-0.025,2.25,0.023,4.574c0.018,1.17,0.043,1.875,0.074,2.113c0.035,0.24,0.141,0.48,0.322,0.73
		c0.48,0.675,1.1,1.013,1.861,1.013c0.861,0,1.506-0.362,1.936-1.087c0.662-1.104,0.994-2.521,0.994-4.252 M183.452,601.265
		c0,1.594-0.484,2.932-1.457,4.008c-0.969,1.078-2.18,1.616-3.629,1.616c-1.498,0-2.75-0.537-3.754-1.614
		c-1.004-1.076-1.506-2.414-1.506-4.009c0-1.646,0.49-3.01,1.469-4.096c0.98-1.084,2.201-1.626,3.666-1.626
		c1.482,0,2.721,0.547,3.719,1.64c0.994,1.095,1.492,2.454,1.492,4.083 M181.204,601.242c0-1.81-0.279-3.215-0.84-4.219
		c-0.41-0.738-1.102-1.107-2.072-1.107c-0.922,0-1.643,0.47-2.16,1.418c-0.52,0.943-0.777,2.257-0.777,3.934
		c0,1.662,0.273,2.957,0.826,3.885c0.551,0.931,1.32,1.395,2.311,1.395c0.756,0,1.316-0.287,1.678-0.862
		c0.689-1.087,1.037-2.567,1.037-4.442 M189.872,606.42c0,0.147-0.105,0.223-0.318,0.223h-0.299c-0.031,0-0.469-0.018-1.309-0.05
		h-0.766c-0.131,0-0.789,0.012-1.977,0.037c-0.1,0.008-0.197,0.013-0.295,0.013c-0.248,0.017-0.371-0.053-0.371-0.208
		c0-0.107,0.09-0.162,0.271-0.162h0.643c0.461,0,0.691-0.1,0.691-0.297c0.018-0.098,0.025-0.74,0.025-1.923v-12.558
		c0-0.541-0.018-0.838-0.051-0.887c-0.049-0.133-0.182-0.197-0.395-0.197h-0.891c-0.229,0-0.346-0.07-0.346-0.211
		c0-0.123,0.205-0.193,0.617-0.209c0.789-0.051,1.521-0.23,2.197-0.543l0.52-0.246l0.197-0.073c0.133,0.478,0.189,1.2,0.174,2.17
		v13.839c0,0.492,0.006,0.785,0.023,0.875s0.072,0.152,0.174,0.186c0.018,0.019,0.32,0.035,0.914,0.051
		C189.684,606.25,189.872,606.307,189.872,606.42 M196.167,606.445c0,0.148-0.139,0.224-0.418,0.224c0.018,0-0.182-0.019-0.594-0.05
		c-0.492-0.033-0.904-0.051-1.234-0.051h-2.566c-0.082,0.066-0.184,0.101-0.297,0.101c-0.182,0-0.27-0.06-0.27-0.183
		c0-0.176,0.162-0.264,0.492-0.264c0.625-0.016,0.967-0.061,1.023-0.135c0.057-0.075,0.086-0.417,0.086-1.024v-7.474
		c-0.016-0.41-0.035-0.655-0.062-0.729c-0.023-0.074-0.127-0.109-0.309-0.109h-0.963c-0.182,0-0.27-0.061-0.27-0.176
		c0-0.102,0.137-0.159,0.412-0.172c1.088-0.047,2.021-0.305,2.801-0.769l0.246-0.147c0.129,0.246,0.193,0.697,0.193,1.354v7.926
		c0,0.655,0.012,1.04,0.037,1.156c0.023,0.112,0.109,0.187,0.26,0.22c0.246,0.066,0.607,0.1,1.086,0.1
		c0.234,0,0.348,0.066,0.348,0.197 M194.319,591.074c0,0.739-0.373,1.109-1.111,1.109c-0.312,0-0.578-0.104-0.791-0.311
		c-0.215-0.205-0.32-0.455-0.32-0.752c0-0.772,0.371-1.159,1.109-1.159c0.74,0,1.111,0.37,1.111,1.11 M204.786,603.453
		c0,0.957-0.348,1.768-1.041,2.435s-1.525,1-2.49,1c-0.557,0-1.232-0.196-2.035-0.59c-0.211-0.117-0.4-0.174-0.562-0.174
		c-0.23,0-0.4,0.155-0.516,0.47c-0.066,0.195-0.156,0.295-0.271,0.295s-0.172-0.064-0.172-0.197v-3.303
		c0-0.18,0.061-0.271,0.174-0.271c0.131,0,0.207,0.09,0.223,0.271c0.1,0.764,0.312,1.36,0.643,1.79
		c0.658,0.86,1.539,1.292,2.641,1.292c0.596,0,1.07-0.173,1.434-0.52s0.545-0.809,0.545-1.385c0-0.644-0.209-1.152-0.621-1.533
		c-0.23-0.215-0.439-0.365-0.629-0.457c-0.189-0.09-0.744-0.31-1.666-0.655c-1.828-0.69-2.742-1.729-2.742-3.114
		c0-0.923,0.311-1.697,0.932-2.324c0.621-0.625,1.389-0.939,2.305-0.939c0.326,0,0.814,0.1,1.469,0.297
		c0.164,0.05,0.311,0.076,0.441,0.076c0.342,0,0.555-0.166,0.637-0.494c0.051-0.164,0.123-0.248,0.221-0.248
		c0.115,0,0.172,0.066,0.172,0.197v1.183c-0.02,0.396,0.023,1.028,0.123,1.899v0.051c0,0.13-0.066,0.195-0.197,0.195
		c-0.1,0-0.225-0.248-0.371-0.746c-0.182-0.598-0.498-1.08-0.949-1.443c-0.453-0.364-0.979-0.547-1.568-0.547
		c-0.561,0-1.02,0.173-1.383,0.52c-0.361,0.348-0.543,0.782-0.543,1.311c0,0.824,0.549,1.449,1.652,1.88
		c1.713,0.675,2.801,1.235,3.26,1.682c0.59,0.574,0.885,1.276,0.885,2.101"/>
</g>
<g id="Cercle">
	<g>
		<circle fill="#00B0DB" cx="714.924" cy="573.441" r="9.639"/>
		<g>
			<path fill="#0097BF" d="M696.733,573.442c0-2.396-1.948-4.343-4.342-4.343c-2.396,0-4.343,1.947-4.343,4.343
				c0,2.394,1.946,4.344,4.343,4.344C694.785,577.786,696.733,575.836,696.733,573.442z"/>
			<path fill="#0097BF" d="M737.456,569.099c-2.394,0-4.341,1.947-4.341,4.343c0,2.394,1.947,4.344,4.341,4.344
				c2.398,0,4.346-1.95,4.346-4.344C741.802,571.046,739.854,569.099,737.456,569.099z"/>
			<path fill="#0097BF" d="M698.991,585.03c-1.16,0-2.252,0.453-3.072,1.272c-0.821,0.821-1.272,1.913-1.272,3.073
				c0,1.158,0.451,2.251,1.272,3.07c0.82,0.818,1.912,1.272,3.072,1.272s2.251-0.454,3.071-1.272
				c0.821-0.819,1.272-1.912,1.272-3.07c0-1.16-0.451-2.252-1.272-3.073C701.242,585.483,700.151,585.03,698.991,585.03z"/>
			<path fill="#0097BF" d="M730.856,561.854c1.162,0,2.253-0.453,3.073-1.273c0.82-0.82,1.272-1.913,1.272-3.073
				s-0.452-2.249-1.272-3.072c-0.82-0.818-1.911-1.271-3.071-1.271c-1.161,0-2.251,0.452-3.072,1.271
				c-0.821,0.823-1.274,1.912-1.274,3.072s0.453,2.253,1.274,3.073C728.607,561.4,729.694,561.854,730.856,561.854z"/>
			<path fill="#0097BF" d="M698.991,561.854c1.16,0,2.251-0.453,3.071-1.273c1.691-1.695,1.691-4.45,0.001-6.145
				c-0.821-0.818-1.912-1.271-3.07-1.271c-1.162,0-2.254,0.452-3.074,1.271c-0.821,0.823-1.272,1.912-1.272,3.072
				s0.451,2.253,1.272,3.073C696.739,561.4,697.831,561.854,698.991,561.854z"/>
			<path fill="#0097BF" d="M730.856,585.03c-1.162,0-2.249,0.453-3.07,1.272c-0.821,0.821-1.274,1.913-1.274,3.073
				c0,1.158,0.453,2.251,1.274,3.07c0.821,0.822,1.908,1.272,3.07,1.272s2.253-0.454,3.073-1.272c0.82-0.819,1.272-1.912,1.272-3.07
				c0-1.16-0.452-2.252-1.272-3.073C733.111,585.483,732.018,585.03,730.856,585.03z"/>
			<path fill="#0097BF" d="M714.924,546.563c-2.395,0-4.341,1.95-4.341,4.343c0,2.396,1.946,4.346,4.341,4.346
				c2.396,0,4.345-1.949,4.345-4.346C719.268,548.513,717.32,546.563,714.924,546.563z"/>
			<path fill="#0097BF" d="M714.924,591.631c-2.395,0-4.341,1.948-4.341,4.343c0,2.395,1.946,4.344,4.341,4.344
				c2.396,0,4.345-1.949,4.345-4.344C719.268,593.579,717.32,591.631,714.924,591.631z"/>
		</g>
		<g>
			<path fill="#007FA2" d="M751.634,570.985c-1.352,0-2.455,1.102-2.455,2.457c0,1.352,1.103,2.454,2.455,2.454
				c1.354,0,2.455-1.103,2.455-2.454C754.089,572.088,752.987,570.985,751.634,570.985z"/>
			<circle fill="#007FA2" cx="714.885" cy="610.131" r="2.454"/>
			<circle fill="#007FA2" cx="714.911" cy="536.679" r="2.454"/>
			<path fill="#007FA2" d="M739.028,597.523c-0.463,0.467-0.716,1.084-0.716,1.738c-0.002,0.652,0.254,1.271,0.714,1.732
				c0.467,0.467,1.083,0.721,1.738,0.721c0.656,0,1.271-0.254,1.736-0.719c0.461-0.463,0.718-1.082,0.718-1.736
				c0-0.652-0.257-1.27-0.718-1.736c-0.465-0.461-1.083-0.717-1.736-0.715C740.109,596.804,739.491,597.062,739.028,597.523z"/>
			<path fill="#007FA2" d="M739.074,545.805c-0.463,0.462-0.718,1.081-0.718,1.735c0,0.656,0.255,1.273,0.718,1.737
				c0.462,0.463,1.08,0.716,1.733,0.718c0.658-0.001,1.273-0.255,1.738-0.718c0.461-0.464,0.719-1.083,0.717-1.737
				c0-0.655-0.256-1.273-0.717-1.733c-0.465-0.464-1.083-0.719-1.738-0.718C740.155,545.085,739.536,545.34,739.074,545.805z"/>
			<path fill="#007FA2" d="M748.814,584.97c-0.354-0.012-0.697,0.051-1.023,0.187c-0.886,0.367-1.48,1.226-1.512,2.186
				c-0.046,1.352,1.018,2.489,2.368,2.533c0.357,0.014,0.7-0.05,1.022-0.185c0.887-0.366,1.484-1.226,1.517-2.187
				C751.229,586.152,750.166,585.016,748.814,584.97z"/>
			<path fill="#007FA2" d="M728.815,542.086c0.352,0.014,0.697-0.051,1.021-0.185c0.888-0.367,1.48-1.225,1.514-2.186
				c0.021-0.655-0.213-1.279-0.661-1.757c-0.446-0.48-1.052-0.756-1.708-0.778c-0.353-0.011-0.697,0.05-1.021,0.184
				c-0.886,0.368-1.482,1.226-1.515,2.184C726.402,540.903,727.466,542.042,728.815,542.086z"/>
			<path fill="#007FA2" d="M727.968,605.017c-0.271,0.113-0.521,0.273-0.735,0.475c-0.479,0.447-0.755,1.055-0.778,1.711
				c-0.022,0.654,0.213,1.281,0.663,1.76c0.695,0.74,1.792,0.979,2.732,0.59c0.271-0.113,0.519-0.275,0.737-0.475
				c0.985-0.926,1.038-2.482,0.113-3.471C730.004,604.869,728.907,604.626,727.968,605.017z"/>
			<path fill="#007FA2" d="M749.714,561.673c0.274-0.115,0.522-0.274,0.739-0.475c0.988-0.926,1.037-2.482,0.114-3.469
				c-0.695-0.745-1.793-0.983-2.732-0.592c-0.274,0.112-0.521,0.273-0.736,0.477c-0.987,0.922-1.041,2.478-0.116,3.47
				C747.677,561.824,748.774,562.062,749.714,561.673z"/>
			<path fill="#007FA2" d="M678.181,570.985c1.352,0,2.453,1.102,2.453,2.457c0,1.352-1.102,2.454-2.453,2.454
				c-1.354,0-2.455-1.103-2.455-2.454C675.727,572.088,676.828,570.985,678.181,570.985z"/>
			<path fill="#007FA2" d="M690.788,597.523c0.462,0.467,0.717,1.084,0.717,1.738c0.003,0.652-0.254,1.271-0.716,1.732
				c-0.465,0.467-1.082,0.721-1.736,0.721c-0.658,0-1.272-0.254-1.737-0.719c-0.461-0.463-0.719-1.082-0.719-1.736
				c0-0.652,0.257-1.27,0.719-1.736c0.465-0.461,1.083-0.717,1.737-0.715C689.706,596.804,690.322,597.062,690.788,597.523z"/>
			<path fill="#007FA2" d="M690.743,545.805c0.462,0.462,0.718,1.081,0.718,1.735c0,0.656-0.254,1.273-0.72,1.737
				c-0.463,0.463-1.077,0.716-1.733,0.718c-0.659-0.001-1.273-0.255-1.737-0.718c-0.462-0.464-0.719-1.083-0.718-1.737
				c0.001-0.655,0.257-1.273,0.718-1.733c0.465-0.464,1.083-0.719,1.737-0.718C689.661,545.085,690.278,545.34,690.743,545.805z"/>
			<path fill="#007FA2" d="M681.001,584.97c0.354-0.012,0.697,0.051,1.023,0.187c0.888,0.367,1.482,1.226,1.513,2.186
				c0.045,1.352-1.019,2.489-2.369,2.533c-0.355,0.014-0.699-0.05-1.022-0.185c-0.887-0.366-1.482-1.226-1.515-2.187
				C678.586,586.152,679.648,585.016,681.001,584.97z"/>
			<path fill="#007FA2" d="M701.001,542.086c-0.353,0.014-0.699-0.051-1.021-0.185c-0.889-0.367-1.48-1.225-1.516-2.186
				c-0.021-0.655,0.213-1.279,0.662-1.757c0.447-0.48,1.052-0.756,1.708-0.778c0.354-0.011,0.698,0.05,1.022,0.184
				c0.886,0.368,1.479,1.226,1.513,2.184C703.413,540.903,702.349,542.042,701.001,542.086z"/>
			<path fill="#007FA2" d="M701.848,605.017c0.271,0.113,0.521,0.273,0.734,0.475c0.479,0.447,0.757,1.055,0.778,1.711
				c0.021,0.654-0.214,1.281-0.66,1.76c-0.697,0.74-1.794,0.979-2.732,0.59c-0.274-0.113-0.521-0.275-0.738-0.475
				c-0.988-0.926-1.039-2.482-0.113-3.471C699.811,604.869,700.909,604.626,701.848,605.017z"/>
			<path fill="#007FA2" d="M680.101,561.673c-0.271-0.115-0.521-0.274-0.737-0.475c-0.988-0.926-1.04-2.482-0.115-3.469
				c0.695-0.745,1.792-0.983,2.731-0.592c0.274,0.112,0.522,0.273,0.736,0.477c0.987,0.922,1.041,2.478,0.116,3.47
				C682.137,561.824,681.041,562.062,680.101,561.673z"/>
		</g>
	</g>
	<rect id="_x3C_Tranche_x3E_" x="0.445" y="504.775" fill="none" width="775" height="139"/>
</g>
</svg>
