<?xml version="1.0" encoding="utf-8"?>
<!-- Generator: Adobe Illustrator 16.0.4, SVG Export Plug-In . SVG Version: 6.00 Build 0)  -->
<!DOCTYPE svg PUBLIC "-//W3C//DTD SVG 1.1//EN" "http://www.w3.org/Graphics/SVG/1.1/DTD/svg11.dtd">
<svg version="1.1" id="Calque_1" xmlns="http://www.w3.org/2000/svg" xmlns:xlink="http://www.w3.org/1999/xlink" x="0px" y="0px"
	 width="100px" height="45px" viewBox="0 -5.5 100 45" enable-background="new 0 -5.5 100 45" xml:space="preserve">
<g id="jalon">
	<path fill="#FFFFFF" d="M16.248,4.249v20.247c0,3.104-1.099,5.755-3.295,7.952C10.755,34.646,8.104,35.744,5,35.744v-4.499
		c1.859,0,3.449-0.66,4.77-1.98c1.319-1.319,1.979-2.909,1.979-4.769V4.249H16.248z"/>
	<path fill="#FFFFFF" d="M37.699,7.544c2.197,2.197,3.295,4.848,3.295,7.953v11.248H29.746c-3.104,0-5.755-1.098-7.953-3.295
		c-2.197-2.197-3.295-4.848-3.295-7.953s1.098-5.755,3.295-7.953c2.197-2.197,4.848-3.295,7.953-3.295S35.501,5.348,37.699,7.544z
		 M36.495,22.246v-6.749c0-1.86-0.66-3.449-1.979-4.77c-1.32-1.319-2.91-1.979-4.77-1.979s-3.45,0.66-4.769,1.979
		c-1.32,1.32-1.98,2.91-1.98,4.77s0.66,3.45,1.98,4.77c1.319,1.32,2.909,1.979,4.769,1.979H36.495z"/>
	<path fill="#FFFFFF" d="M47.743,26.745h-4.499V-2.5h4.499V26.745z"/>
	<path fill="#FFFFFF" d="M72.489,15.647c0,3.133-1.1,5.816-3.3,8.049l-7.948,8.049l-7.949-8.049c-2.2-2.233-3.299-4.916-3.299-8.049
		c0-3.149,1.1-5.836,3.299-8.061c2.199-2.225,4.849-3.337,7.949-3.337s5.749,1.112,7.948,3.337
		C71.39,9.811,72.489,12.498,72.489,15.647z M61.241,25.295l4.774-4.824c1.316-1.333,1.975-2.941,1.975-4.825
		c0-1.899-0.659-3.516-1.975-4.849c-1.316-1.333-2.908-2-4.774-2c-1.867,0-3.458,0.667-4.774,2c-1.316,1.333-1.975,2.95-1.975,4.849
		c0,1.883,0.658,3.492,1.975,4.825L61.241,25.295z"/>
	<path fill="#FFFFFF" d="M91.704,7.545C93.9,9.742,95,12.393,95,15.497v11.248h-4.499V15.497c0-1.86-0.661-3.449-1.98-4.769
		c-1.319-1.319-2.909-1.979-4.769-1.979c-1.725,0-3.225,0.57-4.499,1.709v16.287h-4.5V4.249h4.5v0.945
		c1.424-0.63,2.924-0.945,4.499-0.945C86.856,4.249,89.507,5.348,91.704,7.545z"/>
</g>
<g id="o">
	<g>
		
			<linearGradient id="SVGID_2_" gradientUnits="userSpaceOnUse" x1="-5.7856" y1="159.7832" x2="10.2679" y2="175.8367" gradientTransform="matrix(1 0 0 -1 59 183.5)">
			<stop  offset="0" style="stop-color:#00B3E3"/>
			<stop  offset="1" style="stop-color:#FFDB00"/>
		</linearGradient>
		<path id="SVGID_1_" fill="url(#SVGID_2_)" d="M69.19,7.586c-2.2-2.225-4.85-3.337-7.949-3.337s-5.75,1.112-7.949,3.337
			c-2.2,2.225-3.299,4.912-3.299,8.061c0,3.133,1.1,5.816,3.299,8.049l7.949,8.049l7.949-8.049c2.199-2.233,3.299-4.916,3.299-8.049
			C72.489,12.498,71.39,9.811,69.19,7.586z M66.016,20.472l-4.774,4.824l-4.774-4.824c-1.316-1.333-1.975-2.941-1.975-4.824
			c0-1.9,0.658-3.516,1.975-4.849c1.316-1.333,2.908-2,4.774-2c1.865,0,3.458,0.667,4.774,2c1.315,1.333,1.975,2.949,1.975,4.849
			C67.99,17.53,67.331,19.139,66.016,20.472z"/>
	</g>
</g>
</svg>
