<svg xmlns="http://www.w3.org/2000/svg" width="100" height="45" viewBox="0 -5.5 100 45"><g fill="#FFF"><path d="M16.248 4.25v20.246c0 3.104-1.1 5.755-3.295 7.952-2.198 2.198-4.85 3.296-7.953 3.296v-4.5c1.86 0 3.45-.66 4.77-1.98 1.32-1.318 1.98-2.908 1.98-4.768V4.25h4.498zM37.7 7.544c2.196 2.197 3.294 4.848 3.294 7.953v11.248H29.746c-3.104 0-5.755-1.098-7.953-3.295-2.197-2.197-3.295-4.848-3.295-7.953s1.098-5.755 3.295-7.953C23.99 5.347 26.64 4.25 29.746 4.25S35.5 5.347 37.7 7.543zm-1.205 14.702v-6.75c0-1.86-.66-3.448-1.98-4.77-1.32-1.318-2.91-1.978-4.77-1.978s-3.45.66-4.768 1.98c-1.32 1.32-1.98 2.91-1.98 4.77s.66 3.45 1.98 4.77c1.32 1.32 2.91 1.978 4.77 1.978h6.748zM47.743 26.745h-4.5V-2.5h4.5v29.245zM72.49 15.647c0 3.133-1.1 5.816-3.3 8.05l-7.95 8.048-7.948-8.05c-2.2-2.232-3.3-4.915-3.3-8.048 0-3.15 1.1-5.836 3.3-8.06 2.2-2.226 4.85-3.338 7.95-3.338s5.748 1.11 7.947 3.336c2.2 2.225 3.3 4.912 3.3 8.06zm-11.25 9.648l4.775-4.824c1.316-1.332 1.975-2.94 1.975-4.824 0-1.9-.66-3.516-1.975-4.85-1.316-1.332-2.908-2-4.774-2s-3.457.668-4.773 2c-1.316 1.334-1.975 2.95-1.975 4.85 0 1.883.658 3.492 1.975 4.825l4.774 4.825zM91.704 7.545C93.9 9.742 95 12.393 95 15.497v11.248h-4.5V15.497c0-1.86-.66-3.45-1.98-4.77-1.318-1.318-2.908-1.978-4.768-1.978-1.725 0-3.225.57-4.5 1.708v16.287h-4.5V4.25h4.5v.944c1.425-.63 2.925-.945 4.5-.945 3.104 0 5.755 1.098 7.952 3.295z"/></g><linearGradient id="a" gradientUnits="userSpaceOnUse" x1="-5.786" y1="159.783" x2="10.268" y2="175.837" gradientTransform="matrix(1 0 0 -1 59 183.5)"><stop offset="0" stop-color="#00B3E3"/><stop offset="1" stop-color="#FFDB00"/></linearGradient><path fill="url(#a)" d="M69.19 7.586c-2.2-2.225-4.85-3.337-7.95-3.337s-5.75 1.11-7.948 3.336c-2.2 2.225-3.3 4.912-3.3 8.06 0 3.134 1.1 5.817 3.3 8.05l7.95 8.05 7.948-8.05c2.2-2.233 3.3-4.916 3.3-8.05 0-3.148-1.1-5.835-3.3-8.06zm-3.174 12.886l-4.774 4.824-4.774-4.824c-1.316-1.333-1.975-2.94-1.975-4.824 0-1.9.658-3.516 1.975-4.85 1.316-1.332 2.908-2 4.774-2 1.865 0 3.458.668 4.774 2 1.315 1.334 1.975 2.95 1.975 4.85 0 1.882-.66 3.49-1.974 4.824z"/></svg>